<svg version="1.1" xmlns="http://www.w3.org/2000/svg" xmlns:xlink="http://www.w3.org/1999/xlink" width="100.351" height="100.04222" viewBox="0,0,100.351,100.04222"><g transform="translate(-129.82451,-269.97889)"><g data-paper-data="{&quot;isPaintingLayer&quot;:true}" stroke-linejoin="miter" stroke-miterlimit="10" stroke-dasharray="" stroke-dashoffset="0" style="mix-blend-mode: normal"><g fill-rule="nonzero" stroke="#d9d9d9" stroke-width="1" stroke-linecap="butt"><path d="M130.42348,344.44129c0,-16.39527 0,-36.45796 0,-45.89072c0,-10.12116 14.87248,-24.01258 25.61343,-24.01258c9.94197,0 30.97395,0 48.02517,0c14.18399,0 25.61343,14.2343 25.61343,24.01259c0,9.08657 0,29.5233 0,45.89072c0,14.84131 -12.45503,25.07981 -23.47897,25.07981c-16.79206,0 -35.89961,0 -46.95795,0c-11.71631,0 -28.8151,-11.23171 -28.8151,-25.07981z" fill="#d9d9d9"/><path d="M130.32451,340.38219c0,-16.39527 0,-36.45797 0,-45.89072c0,-10.12116 14.87248,-24.01258 25.61343,-24.01258c9.94197,0 30.97394,0 48.02517,0c14.18399,0 25.61343,14.2343 25.61343,24.01259c0,9.08657 0,29.5233 0,45.89072c0,14.84131 -12.45503,25.07981 -23.47897,25.07981c-16.79206,0 -35.89961,0 -46.95795,0c-11.71631,0 -28.8151,-11.23171 -28.8151,-25.07981z" fill="#ffffff"/></g><g><path d="M160.06514,290.96093l6.58986,2.76378l2.14217,-0.76027c7.02959,-2.49547 15.92783,-2.44087 22.34104,0.13724l2.01918,0.81157l6.79548,-2.84784c3.73681,-1.56709 7.14404,-2.85306 7.57,-2.85876c1.0338,-0.01378 2.57288,1.23515 2.84119,2.30553c0.20895,0.83293 -0.02802,1.80406 -2.16544,8.86547c-1.91566,6.32962 -1.8995,6.00433 -0.42311,8.65082c3.48654,6.24985 5.44541,13.66077 5.51331,20.86085c0.04891,5.10493 -0.48865,7.58758 -2.34114,10.81436c-3.52501,6.14063 -11.44975,10.42116 -21.43022,11.57606c-4.24919,0.49149 -14.81756,0.49149 -19.07483,-0.00095c-7.56858,-0.87425 -13.76286,-3.4685 -18.13695,-7.5947c-4.1319,-3.89778 -5.61446,-7.81647 -5.59737,-14.79477c0.01804,-7.14737 1.78221,-14.25816 5.0978,-20.54696l1.67394,-3.17455l-0.79351,-2.71202c-0.43642,-1.49111 -1.20666,-4.11386 -1.71146,-5.82769c-1.77366,-6.02096 -1.77603,-6.05894 -0.38227,-7.60704c0.44781,-0.49767 1.16724,-0.82486 1.8126,-0.82486c0.58837,0 4.0355,1.2437 7.65976,2.76472z" fill="#ff7319" fill-rule="evenodd" stroke="#000000" stroke-width="0" stroke-linecap="butt"/><path d="M189.27873,318.46623l1.63452,0.46205c4.14567,1.56899 7.89958,4.02268 11.00099,7.18963l0.83056,0.84813c2.82171,3.55825 4.40685,7.77848 4.46242,11.87808c0.03941,2.9072 -0.39605,4.3209 -1.89524,6.15819c-2.85306,3.49699 -9.26721,5.93406 -17.34486,6.59176c-3.43905,0.2797 -11.99301,0.2797 -15.43824,-0.00048c-6.12591,-0.49814 -11.13965,-1.97501 -14.67986,-4.3247c-3.34408,-2.21957 -4.5441,-4.45102 -4.52985,-8.42479c0.01425,-4.06969 1.44219,-8.11848 4.12572,-11.69952l1.35483,-1.80785c2.67023,-2.65408 5.8728,-4.7122 9.39638,-6.03853l1.26697,-0.47725l1.73378,-0.43309c5.6895,-1.42083 12.89147,-1.38996 18.08187,0.07836z" fill="#feffff" fill-rule="nonzero" stroke="none" stroke-width="1" stroke-linecap="butt"/><path d="M207.46542,298.02053c-1.69531,6.00244 -1.81023,6.27217 -2.32119,5.44065c-1.00864,-1.64165 -6.47969,-6.76746 -8.4167,-7.88627l-1.93322,-1.11596l5.60972,-2.41808c9.31898,-4.0165 9.77534,-3.63043 7.06141,5.97965z" fill="#77500c" fill-rule="nonzero" stroke="none" stroke-width="1" stroke-linecap="butt"/><path d="M152.8836,289.572c0.84148,0 11.26881,4.1661 12.02292,4.80338c0.17523,0.14816 -0.3552,0.61354 -1.17911,1.03381c-1.75419,0.89514 -5.80394,4.58398 -7.81362,7.11839c-0.77405,0.97588 -1.40706,1.67537 -1.40706,1.5538c0,-0.12157 -0.83103,-3.04301 -1.84726,-6.49156c-1.73188,-5.88087 -1.81118,-6.32535 -1.27457,-7.14404c0.35331,-0.53898 0.92744,-0.87377 1.49872,-0.87377z" fill="#77500c" fill-rule="nonzero" stroke="none" stroke-width="1" stroke-linecap="butt"/><path d="M181.49872,320.92875c0.79933,0 1.60472,0.45398 1.60472,1.25365v0c0,1.5146 -1.22808,2.74236 -2.74269,2.74236c-1.51461,0 -2.74237,-1.22776 -2.74237,-2.74236v0c0,-0.79967 0.80506,-1.25365 1.60473,-1.25365z" fill="#945600" fill-rule="evenodd" stroke="#000000" stroke-width="2" stroke-linecap="butt"/><path d="M186.6799,316.27616c-1.61975,0 -2.93282,-1.31307 -2.93282,-2.93282c0,-1.61975 1.31306,-2.93281 2.93282,-2.93281c1.61975,0 2.93282,1.31306 2.93282,2.93281c0,1.61975 -1.31307,2.93282 -2.93282,2.93282z" fill="#000000" fill-rule="nonzero" stroke="none" stroke-width="1" stroke-linecap="butt"/><path d="M170.45214,313.35762c0,-1.61975 1.31307,-2.93282 2.93282,-2.93282c1.61975,0 2.93282,1.31307 2.93282,2.93282c0,1.61975 -1.31307,2.93282 -2.93282,2.93282c-1.61975,0 -2.93282,-1.31307 -2.93282,-2.93282z" fill="#000000" fill-rule="nonzero" stroke="none" stroke-width="1" stroke-linecap="butt"/><path d="M187.82865,327.30792c0,1.07856 -0.47907,2.06131 -1.23294,2.74395c-0.66047,0.59807 -1.53187,0.9658 -2.4768,0.9658c-2.0235,0 -3.70974,-1.6188 -3.70974,-3.70975c0,-0.1349 0,-2.15299 0,-2.15299c0,-0.1349 0,1.81574 0,1.81574c0,0 0,0.06745 0,0.20235c0,0 0,0 0,0.1349c0,2.0235 -1.68625,3.70975 -3.70975,3.70975c-2.0235,0 -3.70975,-1.6188 -3.70975,-3.70975" fill="none" fill-rule="nonzero" stroke="#000000" stroke-width="2" stroke-linecap="round"/></g><path d="M170.2266,296.00911c0,0 -7.48133,-0.10315 -6.0127,-4.79359c1.53143,-4.89099 4.73363,-4.1599 4.73363,-4.1599l22.7907,-0.11628c0,0 3.37198,-0.41956 4.56739,3.21817c1.77026,5.38703 -5.49762,5.50276 -5.49762,5.50276z" fill="#373737" fill-rule="nonzero" stroke="none" stroke-width="0" stroke-linecap="butt"/><path d="M168.36613,289.26493v-12.32681c0,0 3.39967,-1.29066 11.16279,-1.51974c8.58346,-0.25329 11.39535,1.51974 11.39535,1.51974v12.32681z" fill="#373737" fill-rule="nonzero" stroke="none" stroke-width="0" stroke-linecap="butt"/><path d="M168.46112,287.08347c0,0 1.73284,2.62298 11.53103,2.44488c9.90851,-0.1801 10.95669,-2.33188 10.95669,-2.33188" fill="none" fill-rule="nonzero" stroke="#000000" stroke-width="0.5" stroke-linecap="round"/><path d="M168.53154,277.22431c0,0 1.70571,2.62298 11.35048,2.44488c9.75336,-0.18011 10.78513,-2.33187 10.78513,-2.33187" fill="none" fill-rule="nonzero" stroke="#000000" stroke-width="0.5" stroke-linecap="round"/><path d="M192.06255,313.29868c0,2.96225 -2.40138,5.36364 -5.36364,5.36364c-2.96225,0 -5.36364,-2.40138 -5.36364,-5.36364c0,-2.96225 2.40138,-5.36364 5.36364,-5.36364c2.96225,0 5.36364,2.40138 5.36364,5.36364z" fill-opacity="0.46667" fill="#00c3ff" fill-rule="nonzero" stroke="#ffc400" stroke-width="2.5" stroke-linecap="butt"/><path d="M192.00195,319.57141l-0.09091,26.09091" fill="none" fill-rule="nonzero" stroke="#373737" stroke-width="2.5" stroke-linecap="round"/><path d="M192.5171,317.91989c0,0.52718 -0.42736,0.95455 -0.95455,0.95455c-0.52718,0 -0.95455,-0.42736 -0.95455,-0.95455c0,-0.52718 0.42736,-0.95455 0.95455,-0.95455c0.52718,0 0.95455,0.42736 0.95455,0.95455z" fill="#ffc400" fill-rule="nonzero" stroke="#ffc400" stroke-width="2.5" stroke-linecap="butt"/></g></g></svg>