<svg version="1.1" xmlns="http://www.w3.org/2000/svg" xmlns:xlink="http://www.w3.org/1999/xlink" width="100.351" height="100.04222" viewBox="0,0,100.351,100.04222"><g transform="translate(-269.8245,-129.97889)"><g data-paper-data="{&quot;isPaintingLayer&quot;:true}" stroke-linejoin="miter" stroke-miterlimit="10" stroke-dasharray="" stroke-dashoffset="0" style="mix-blend-mode: normal"><g fill-rule="nonzero" stroke="#d9d9d9" stroke-width="1" stroke-linecap="butt"><path d="M270.42347,204.44129c0,-16.39527 0,-36.45796 0,-45.89072c0,-10.12116 14.87248,-24.01258 25.61343,-24.01258c9.94197,0 30.97395,0 48.02517,0c14.18399,0 25.61343,14.2343 25.61343,24.01259c0,9.08657 0,29.5233 0,45.89072c0,14.84131 -12.45503,25.07981 -23.47897,25.07981c-16.79206,0 -35.89961,0 -46.95795,0c-11.71631,0 -28.8151,-11.23171 -28.8151,-25.07981z" fill="#d9d9d9"/><path d="M270.3245,200.38219c0,-16.39527 0,-36.45797 0,-45.89072c0,-10.12116 14.87248,-24.01258 25.61343,-24.01258c9.94197,0 30.97394,0 48.02517,0c14.18399,0 25.61343,14.2343 25.61343,24.01259c0,9.08657 0,29.5233 0,45.89072c0,14.84131 -12.45503,25.07981 -23.47897,25.07981c-16.79206,0 -35.89961,0 -46.95795,0c-11.71631,0 -28.8151,-11.23171 -28.8151,-25.07981z" fill="#ffffff"/></g><g><path d="M285.3702,173.56235l6.61403,-2.70544l0.97715,-2.05234c3.20611,-6.73524 9.53673,-12.98863 15.89454,-15.70046l2.00164,-0.85391l2.79141,-6.81885c1.53422,-3.75042 3.03418,-7.06902 3.33135,-7.37425c0.72127,-0.74075 2.69269,-0.94591 3.63928,-0.37877c0.73672,0.44123 1.25585,1.29548 4.73764,7.80003c3.12115,5.83029 2.90256,5.58886 5.81787,6.41624c6.88467,1.95396 13.51011,5.80914 18.64935,10.85235c3.64431,3.57514 5.0197,5.71075 5.99147,9.30234c1.84952,6.83463 -0.72732,15.46507 -6.96794,23.33896c-2.6571,3.35217 -10.13006,10.82514 -13.48861,13.48727c-5.96998,4.73361 -12.18442,7.27922 -18.19503,7.4545c-5.67784,0.16554 -9.4971,-1.55706 -14.41942,-6.50355c-5.04119,-5.06671 -8.82183,-11.34225 -10.92421,-18.13358l-1.06109,-3.4284l-2.47878,-1.35658c-1.36297,-0.74578 -3.76218,-2.05569 -5.33098,-2.91061c-5.51163,-3.00329 -5.54016,-3.02847 -5.6493,-5.10868c-0.03526,-0.66856 0.2421,-1.40863 0.69844,-1.86497c0.41604,-0.41604 3.73296,-1.9741 7.37122,-3.46131z" fill="#cccccc" fill-rule="evenodd" stroke="#000000" stroke-width="0" stroke-linecap="butt"/><path d="M325.47651,172.35442l1.4825,-0.82906c4.04087,-1.82199 8.43031,-2.74138 12.86271,-2.69504l1.18701,0.01242c4.51132,0.52081 8.61633,2.3841 11.55448,5.24367c2.08356,2.02783 2.77529,3.33538 3.01437,5.69463c0.45533,4.49016 -2.3569,10.74892 -7.60359,16.92575c-2.234,2.62955 -8.28256,8.67811 -10.91682,10.91614c-4.68391,3.97943 -9.27347,6.48038 -13.43826,7.3222c-3.9341,0.79515 -6.3605,0.06582 -9.16031,-2.75414c-2.86763,-2.88778 -4.72085,-6.76042 -5.35549,-11.19014l-0.32034,-2.23636c0.01142,-3.76486 0.82067,-7.48473 2.37435,-10.91413l0.55841,-1.23335l0.91972,-1.5322c3.01841,-5.02776 8.1328,-10.0985 12.84123,-12.73041z" fill="#feffff" fill-rule="nonzero" stroke="none" stroke-width="1" stroke-linecap="butt"/><path d="M323.87915,145.03719c3.0456,5.44313 3.15506,5.71512 2.20579,5.48846c-1.87404,-0.44761 -9.36715,-0.20349 -11.52794,0.37507l-2.15609,0.57789l2.25683,-5.67651c3.74941,-9.42961 4.34511,-9.4793 9.22142,-0.76492z" fill="#787878" fill-rule="nonzero" stroke="none" stroke-width="1" stroke-linecap="butt"/><path d="M279.30996,177.65835c0.59502,-0.59502 10.91413,-5.02237 11.89799,-5.10498c0.22867,-0.01914 0.18267,0.68501 -0.10275,1.56477c-0.60744,1.87336 -0.86264,7.34537 -0.4916,10.55853c0.14271,1.23738 0.18972,2.1796 0.10376,2.09364c-0.08596,-0.08596 -2.73936,-1.5641 -5.89644,-3.28401c-5.38303,-2.93378 -5.7534,-3.192 -5.95286,-4.15034c-0.13129,-0.63095 0.03795,-1.27365 0.4419,-1.6776z" fill="#787878" fill-rule="nonzero" stroke="none" stroke-width="1" stroke-linecap="butt"/><path d="M321.71647,179.59698c0.56522,-0.56522 1.45572,-0.81369 2.02117,-0.24824v0c1.07099,1.07099 1.07075,2.80753 -0.00024,3.87852c-1.07099,1.07099 -2.8073,1.07099 -3.87829,0v0c-0.56545,-0.56545 -0.3172,-1.45572 0.24825,-2.02118z" fill="#787878" fill-rule="evenodd" stroke="#000000" stroke-width="2" stroke-linecap="butt"/><path d="M322.09024,172.64346c-1.14534,1.14534 -3.00229,1.14534 -4.14763,0c-1.14534,-1.14534 -1.14534,-3.00229 0,-4.14763c1.14534,-1.14534 3.00229,-1.14534 4.14763,0c1.14534,1.14534 1.14534,3.00229 0,4.14763z" fill="#000000" fill-rule="nonzero" stroke="none" stroke-width="1" stroke-linecap="butt"/><path d="M308.55177,182.05449c-1.14534,-1.14534 -1.14534,-3.0023 0,-4.14763c1.14534,-1.14534 3.0023,-1.14534 4.14763,0c1.14534,1.14534 1.14534,3.0023 0,4.14763c-1.14534,1.14534 -3.0023,1.14534 -4.14763,0z" fill="#000000" fill-rule="nonzero" stroke="none" stroke-width="1" stroke-linecap="butt"/><path d="M330.70316,179.6318c0.76266,0.76266 1.11881,1.79632 1.06844,2.81209c-0.04412,0.88992 -0.40027,1.76612 -1.06844,2.43429c-1.43083,1.43083 -3.76785,1.47852 -5.24638,0c-0.09539,-0.09539 -1.52239,-1.52239 -1.52239,-1.52239c-0.09539,-0.09539 1.28392,1.28392 1.28392,1.28392c0,0 0.04769,0.04769 0.14308,0.14308c0,0 0,0 0.09539,0.09539c1.43083,1.43083 1.43083,3.81555 0,5.24638c-1.43083,1.43083 -3.76785,1.47852 -5.24638,0" fill="none" fill-rule="nonzero" stroke="#000000" stroke-width="2" stroke-linecap="round"/></g></g></g></svg>