<svg version="1.1" xmlns="http://www.w3.org/2000/svg" xmlns:xlink="http://www.w3.org/1999/xlink" width="100.803" height="100.1195" viewBox="0,0,100.803,100.1195"><g transform="translate(-129.53208,-270.21558)"><g data-paper-data="{&quot;isPaintingLayer&quot;:true}" stroke-linejoin="miter" stroke-miterlimit="10" stroke-dasharray="" stroke-dashoffset="0" style="mix-blend-mode: normal"><path d="M130.03208,369.68398l99.33817,-98.78933" fill="none" fill-rule="nonzero" stroke="#cccccc" stroke-width="1" stroke-linecap="round"/><path d="M229.66908,369.67l-99.33816,-98.78933" data-paper-data="{&quot;index&quot;:null}" fill="none" fill-rule="nonzero" stroke="#cccccc" stroke-width="1" stroke-linecap="round"/><path d="M130.16492,369.83508v-99.1195h99.67016v99.1195z" fill="none" fill-rule="nonzero" stroke="#cccccc" stroke-width="1" stroke-linecap="butt"/><path d="M160.06514,290.96094l6.58986,2.76378l2.14217,-0.76027c7.02959,-2.49547 15.92784,-2.44087 22.34104,0.13724l2.01917,0.81157l6.79548,-2.84783c3.73681,-1.56709 7.14404,-2.85306 7.57001,-2.85876c1.0338,-0.01378 2.57288,1.23515 2.84119,2.30553c0.20895,0.83294 -0.02802,1.80406 -2.16544,8.86547c-1.91566,6.32962 -1.8995,6.00433 -0.42311,8.65082c3.48654,6.24985 5.44541,13.66077 5.51331,20.86085c0.04891,5.10493 -0.48865,7.58758 -2.34114,10.81436c-3.52501,6.14063 -11.44975,10.42116 -21.43022,11.57606c-4.24919,0.49149 -14.81757,0.49149 -19.07483,-0.00095c-7.56858,-0.87425 -13.76286,-3.4685 -18.13695,-7.5947c-4.1319,-3.89778 -5.61446,-7.81647 -5.59737,-14.79478c0.01804,-7.14737 1.78221,-14.25816 5.0978,-20.54696l1.67394,-3.17455l-0.79352,-2.71201c-0.43642,-1.49111 -1.20666,-4.11386 -1.71146,-5.82769c-1.77366,-6.02096 -1.77603,-6.05894 -0.38227,-7.60704c0.44781,-0.49768 1.16724,-0.82486 1.8126,-0.82486c0.58837,0 4.0355,1.2437 7.65976,2.76472z" fill="#cccccc" fill-rule="evenodd" stroke="#000000" stroke-width="0" stroke-linecap="butt"/><path d="M189.27872,318.46624l1.63452,0.46205c4.14567,1.56899 7.89958,4.02268 11.00099,7.18963l0.83056,0.84812c2.82171,3.55825 4.40685,7.77848 4.46241,11.87808c0.03941,2.9072 -0.39605,4.3209 -1.89524,6.15819c-2.85306,3.49699 -9.26721,5.93406 -17.34486,6.59176c-3.43905,0.2797 -11.993,0.2797 -15.43823,-0.00048c-6.12591,-0.49815 -11.13966,-1.97501 -14.67986,-4.32471c-3.34408,-2.21957 -4.5441,-4.45101 -4.52985,-8.42478c0.01425,-4.06969 1.44219,-8.11848 4.12572,-11.69952l1.35483,-1.80786c2.67023,-2.65408 5.8728,-4.7122 9.39637,-6.03853l1.26697,-0.47726l1.73377,-0.43309c5.6895,-1.42082 12.89147,-1.38996 18.08188,0.07836z" fill="#feffff" fill-rule="nonzero" stroke="none" stroke-width="1" stroke-linecap="butt"/><path d="M207.46541,298.02054c-1.69531,6.00244 -1.81023,6.27217 -2.3212,5.44065c-1.00864,-1.64165 -6.47969,-6.76746 -8.4167,-7.88627l-1.93322,-1.11596l5.60972,-2.41807c9.31898,-4.0165 9.77533,-3.63043 7.06141,5.97965z" fill="#787878" fill-rule="nonzero" stroke="none" stroke-width="1" stroke-linecap="butt"/><path d="M152.8836,289.57201c0.84148,0 11.26881,4.1661 12.02292,4.80338c0.17523,0.14816 -0.35521,0.61354 -1.17912,1.03381c-1.75419,0.89514 -5.80394,4.58398 -7.81362,7.11839c-0.77405,0.97588 -1.40706,1.67536 -1.40706,1.5538c0,-0.12157 -0.83103,-3.043 -1.84726,-6.49156c-1.73188,-5.88087 -1.81118,-6.32535 -1.27457,-7.14404c0.35331,-0.53898 0.92744,-0.87378 1.49872,-0.87378z" fill="#787878" fill-rule="nonzero" stroke="none" stroke-width="1" stroke-linecap="butt"/><path d="M181.49871,320.92876c0.79933,0 1.60472,0.45398 1.60472,1.25365v0c0,1.5146 -1.22809,2.74236 -2.7427,2.74236c-1.51461,0 -2.74237,-1.22776 -2.74237,-2.74236v0c0,-0.79967 0.80506,-1.25365 1.60473,-1.25365z" fill="#787878" fill-rule="evenodd" stroke="#000000" stroke-width="2" stroke-linecap="butt"/><path d="M186.67989,316.27617c-1.61975,0 -2.93282,-1.31306 -2.93282,-2.93282c0,-1.61975 1.31306,-2.93282 2.93282,-2.93282c1.61975,0 2.93282,1.31306 2.93282,2.93282c0,1.61975 -1.31306,2.93282 -2.93282,2.93282z" fill="#000000" fill-rule="nonzero" stroke="none" stroke-width="1" stroke-linecap="butt"/><path d="M170.45213,313.35763c0,-1.61975 1.31307,-2.93282 2.93282,-2.93282c1.61975,0 2.93282,1.31307 2.93282,2.93282c0,1.61975 -1.31307,2.93282 -2.93282,2.93282c-1.61975,0 -2.93282,-1.31307 -2.93282,-2.93282z" fill="#000000" fill-rule="nonzero" stroke="none" stroke-width="1" stroke-linecap="butt"/><path d="M187.82864,327.30793c0,1.07856 -0.47908,2.06131 -1.23295,2.74395c-0.66047,0.59807 -1.53186,0.9658 -2.4768,0.9658c-2.0235,0 -3.70974,-1.6188 -3.70974,-3.70975c0,-0.1349 0,-2.15299 0,-2.15299c0,-0.1349 0,1.81574 0,1.81574c0,0 0,0.06745 0,0.20235c0,0 0,0 0,0.1349c0,2.0235 -1.68625,3.70975 -3.70975,3.70975c-2.0235,0 -3.70975,-1.6188 -3.70975,-3.70975" fill="none" fill-rule="nonzero" stroke="#000000" stroke-width="2" stroke-linecap="round"/><path d="M141.44394,358.55606v-77.11212h77.11212v77.11212z" fill="none" fill-rule="nonzero" stroke="#cccccc" stroke-width="1" stroke-linecap="butt"/></g></g></svg>