<svg version="1.1" xmlns="http://www.w3.org/2000/svg" xmlns:xlink="http://www.w3.org/1999/xlink" width="100.35101" height="100.04222" viewBox="0,0,100.35101,100.04222"><g transform="translate(-269.8245,-129.97889)"><g data-paper-data="{&quot;isPaintingLayer&quot;:true}" stroke-linejoin="miter" stroke-miterlimit="10" stroke-dasharray="" stroke-dashoffset="0" style="mix-blend-mode: normal"><g fill-rule="nonzero" stroke="#d9d9d9" stroke-width="1" stroke-linecap="butt"><path d="M270.42348,204.44129c0,-16.39527 0,-36.45796 0,-45.89072c0,-10.12116 14.87248,-24.01258 25.61343,-24.01258c9.94197,0 30.97395,0 48.02517,0c14.18399,0 25.61343,14.2343 25.61343,24.01259c0,9.08657 0,29.5233 0,45.89072c0,14.84131 -12.45503,25.07981 -23.47897,25.07981c-16.79206,0 -35.89961,0 -46.95795,0c-11.71631,0 -28.8151,-11.23171 -28.8151,-25.07981z" fill="#d9d9d9"/><path d="M270.32451,200.38219c0,-16.39527 0,-36.45797 0,-45.89072c0,-10.12116 14.87248,-24.01258 25.61343,-24.01258c9.94197,0 30.97394,0 48.02517,0c14.18399,0 25.61343,14.2343 25.61343,24.01259c0,9.08657 0,29.5233 0,45.89072c0,14.84131 -12.45503,25.07981 -23.47897,25.07981c-16.79206,0 -35.89961,0 -46.95795,0c-11.71631,0 -28.8151,-11.23171 -28.8151,-25.07981z" fill="#ffffff"/></g><g><path d="M326.43765,145.3702l2.70544,6.61403l2.05234,0.97715c6.73524,3.20611 12.98863,9.53673 15.70046,15.89454l0.85391,2.00164l6.81885,2.79141c3.75042,1.53422 7.06902,3.03418 7.37425,3.33135c0.74075,0.72127 0.94591,2.69269 0.37877,3.63928c-0.44123,0.73672 -1.29548,1.25585 -7.80003,4.73764c-5.83029,3.12115 -5.58886,2.90256 -6.41624,5.81787c-1.95396,6.88467 -5.80914,13.51011 -10.85235,18.64935c-3.57514,3.64431 -5.71075,5.0197 -9.30234,5.99147c-6.83463,1.84952 -15.46507,-0.72732 -23.33896,-6.96794c-3.35217,-2.6571 -10.82514,-10.13006 -13.48727,-13.48861c-4.73361,-5.96998 -7.27922,-12.18442 -7.4545,-18.19503c-0.16554,-5.67784 1.55706,-9.4971 6.50355,-14.41942c5.06671,-5.04119 11.34225,-8.82183 18.13358,-10.92421l3.4284,-1.06109l1.35658,-2.47878c0.74578,-1.36297 2.05569,-3.76218 2.91061,-5.33098c3.00329,-5.51163 3.02847,-5.54016 5.10868,-5.6493c0.66856,-0.03526 1.40863,0.2421 1.86497,0.69844c0.41604,0.41604 1.9741,3.73296 3.46131,7.37122z" fill="#cccccc" fill-rule="evenodd" stroke="#000000" stroke-width="0" stroke-linecap="butt"/><path d="M327.64558,185.47651l0.82906,1.4825c1.82199,4.04087 2.74138,8.43031 2.69504,12.86271l-0.01242,1.18701c-0.52081,4.51132 -2.3841,8.61633 -5.24367,11.55448c-2.02783,2.08356 -3.33538,2.77529 -5.69463,3.01437c-4.49016,0.45533 -10.74892,-2.3569 -16.92575,-7.60359c-2.62955,-2.234 -8.67811,-8.28256 -10.91614,-10.91682c-3.97943,-4.68391 -6.48038,-9.27347 -7.3222,-13.43826c-0.79515,-3.9341 -0.06582,-6.3605 2.75414,-9.16031c2.88778,-2.86763 6.76042,-4.72085 11.19014,-5.35549l2.23636,-0.32034c3.76486,0.01142 7.48473,0.82067 10.91413,2.37435l1.23335,0.55841l1.5322,0.91972c5.02776,3.01841 10.0985,8.1328 12.73041,12.84123z" fill="#feffff" fill-rule="nonzero" stroke="none" stroke-width="1" stroke-linecap="butt"/><path d="M354.96281,183.87915c-5.44313,3.0456 -5.71512,3.15506 -5.48846,2.20579c0.44761,-1.87404 0.20349,-9.36715 -0.37507,-11.52794l-0.57789,-2.15609l5.67651,2.25683c9.42961,3.74941 9.4793,4.34511 0.76492,9.22142z" fill="#787878" fill-rule="nonzero" stroke="none" stroke-width="1" stroke-linecap="butt"/><path d="M322.34165,139.30997c0.59502,0.59502 5.02237,10.91413 5.10498,11.89799c0.01914,0.22867 -0.68501,0.18267 -1.56477,-0.10275c-1.87336,-0.60744 -7.34537,-0.86264 -10.55853,-0.4916c-1.23738,0.14271 -2.1796,0.18972 -2.09364,0.10376c0.08596,-0.08596 1.5641,-2.73936 3.28401,-5.89644c2.93378,-5.38303 3.192,-5.7534 4.15034,-5.95286c0.63095,-0.13129 1.27365,0.03795 1.6776,0.4419z" fill="#787878" fill-rule="nonzero" stroke="none" stroke-width="1" stroke-linecap="butt"/><path d="M320.40302,181.71647c0.56522,0.56522 0.81369,1.45572 0.24824,2.02117v0c-1.07099,1.07099 -2.80753,1.07075 -3.87852,-0.00024c-1.07099,-1.07099 -1.07099,-2.8073 0,-3.87829v0c0.56545,-0.56545 1.45572,-0.3172 2.02118,0.24825z" fill="#787878" fill-rule="evenodd" stroke="#000000" stroke-width="2" stroke-linecap="butt"/><path d="M327.35654,182.09024c-1.14534,-1.14534 -1.14534,-3.00229 0,-4.14763c1.14534,-1.14534 3.00229,-1.14534 4.14763,0c1.14534,1.14534 1.14534,3.00229 0,4.14763c-1.14534,1.14534 -3.00229,1.14534 -4.14763,0z" fill="#000000" fill-rule="nonzero" stroke="none" stroke-width="1" stroke-linecap="butt"/><path d="M317.9455,168.55177c1.14534,-1.14534 3.0023,-1.14534 4.14763,0c1.14534,1.14534 1.14534,3.0023 0,4.14763c-1.14534,1.14534 -3.0023,1.14534 -4.14763,0c-1.14534,-1.14534 -1.14534,-3.0023 0,-4.14763z" fill="#000000" fill-rule="nonzero" stroke="none" stroke-width="1" stroke-linecap="butt"/><path d="M320.3682,190.70316c-0.76266,0.76266 -1.79632,1.11881 -2.81209,1.06844c-0.88992,-0.04412 -1.76612,-0.40027 -2.43429,-1.06844c-1.43083,-1.43083 -1.47852,-3.76785 0,-5.24638c0.09539,-0.09539 1.52239,-1.52239 1.52239,-1.52239c0.09539,-0.09539 -1.28392,1.28392 -1.28392,1.28392c0,0 -0.04769,0.04769 -0.14308,0.14308c0,0 0,0 -0.09539,0.09539c-1.43083,1.43083 -3.81555,1.43083 -5.24638,0c-1.43083,-1.43083 -1.47852,-3.76785 0,-5.24638" fill="none" fill-rule="nonzero" stroke="#000000" stroke-width="2" stroke-linecap="round"/></g></g></g></svg>