<svg version="1.1" xmlns="http://www.w3.org/2000/svg" xmlns:xlink="http://www.w3.org/1999/xlink" width="100.65306" height="100.04222" viewBox="0,0,100.65306,100.04222"><g transform="translate(-269.67347,-129.97889)"><g data-paper-data="{&quot;isPaintingLayer&quot;:true}" stroke-linejoin="miter" stroke-miterlimit="10" stroke-dasharray="" stroke-dashoffset="0" style="mix-blend-mode: normal"><g fill-rule="nonzero" stroke="#d9d9d9" stroke-width="1" stroke-linecap="butt"><path d="M270.17347,204.44129c0,-16.39527 0,-36.45796 0,-45.89072c0,-10.12116 14.87248,-24.01258 25.61343,-24.01258c9.94197,0 30.97395,0 48.02517,0c14.18399,0 25.61343,14.2343 25.61343,24.01259c0,9.08657 0,29.5233 0,45.89072c0,14.84131 -12.45503,25.07981 -23.47897,25.07981c-16.79206,0 -35.89961,0 -46.95795,0c-11.71631,0 -28.8151,-11.23171 -28.8151,-25.07981z" fill="#d9d9d9"/><path d="M270.5745,200.38219c0,-16.39527 0,-36.45797 0,-45.89072c0,-10.12116 14.87248,-24.01258 25.61343,-24.01258c9.94197,0 30.97394,0 48.02517,0c14.18399,0 25.61343,14.2343 25.61343,24.01259c0,9.08657 0,29.5233 0,45.89072c0,14.84131 -12.45503,25.07981 -23.47897,25.07981c-16.79206,0 -35.89961,0 -46.95795,0c-11.71631,0 -28.8151,-11.23171 -28.8151,-25.07981z" fill="#ffffff"/></g><path d="M291.94923,217.07537v-5.09547h69.86156v5.09547z" fill="#ffffff" fill-rule="nonzero" stroke="none" stroke-width="0" stroke-linecap="butt"/><path d="M363.1491,211.28503c0,0 0.25,-1.4996 0.25,-2.2831c0,-0.83118 -0.25,-2.56939 -0.25,-2.56939h3.96122c0,0 0,1.73822 0,2.56939c0,0.7835 0,2.2831 0,2.2831z" fill="#ffffff" fill-rule="nonzero" stroke="none" stroke-width="0" stroke-linecap="butt"/><path d="M300.21271,150.23062l6.58986,2.76378l2.14217,-0.76027c7.02959,-2.49547 15.92783,-2.44087 22.34104,0.13724l2.01918,0.81157l6.79548,-2.84784c3.73681,-1.56709 7.14404,-2.85306 7.57,-2.85876c1.0338,-0.01378 2.57288,1.23515 2.84119,2.30553c0.20895,0.83293 -0.02802,1.80406 -2.16544,8.86547c-1.91566,6.32962 -1.8995,6.00433 -0.42311,8.65082c3.48654,6.24985 5.44541,13.66077 5.51331,20.86085c0.04891,5.10493 -0.48865,7.58758 -2.34114,10.81436c-3.52501,6.14063 -11.44975,10.42116 -21.43022,11.57606c-4.24919,0.49149 -14.81756,0.49149 -19.07483,-0.00095c-7.56858,-0.87425 -13.76286,-3.4685 -18.13695,-7.5947c-4.1319,-3.89778 -5.61446,-7.81647 -5.59737,-14.79477c0.01804,-7.14737 1.78221,-14.25816 5.0978,-20.54696l1.67394,-3.17455l-0.79351,-2.71202c-0.43642,-1.49111 -1.20666,-4.11386 -1.71146,-5.82769c-1.77366,-6.02096 -1.77603,-6.05894 -0.38227,-7.60704c0.44781,-0.49767 1.16724,-0.82486 1.8126,-0.82486c0.58837,0 4.0355,1.2437 7.65976,2.76472z" fill="#ff7319" fill-rule="evenodd" stroke="#000000" stroke-width="0" stroke-linecap="butt"/><path d="M329.42629,177.73592l1.63452,0.46205c4.14567,1.56899 7.89958,4.02268 11.00099,7.18963l0.83056,0.84813c2.82171,3.55825 4.40685,7.77848 4.46242,11.87808c0.03941,2.9072 -0.39605,4.3209 -1.89524,6.15819c-2.85306,3.49699 -9.26721,5.93406 -17.34486,6.59176c-3.43905,0.2797 -11.99301,0.2797 -15.43824,-0.00048c-6.12591,-0.49814 -11.13965,-1.97501 -14.67986,-4.3247c-3.34408,-2.21957 -4.5441,-4.45102 -4.52985,-8.42479c0.01425,-4.06969 1.44219,-8.11848 4.12572,-11.69952l1.35483,-1.80785c2.67023,-2.65408 5.8728,-4.7122 9.39638,-6.03853l1.26697,-0.47725l1.73378,-0.43309c5.6895,-1.42083 12.89147,-1.38996 18.08187,0.07836z" fill="#feffff" fill-rule="nonzero" stroke="none" stroke-width="1" stroke-linecap="butt"/><path d="M347.61298,157.29022c-1.69531,6.00244 -1.81023,6.27217 -2.32119,5.44065c-1.00864,-1.64165 -6.47969,-6.76746 -8.4167,-7.88627l-1.93322,-1.11596l5.60972,-2.41808c9.31898,-4.0165 9.77534,-3.63043 7.06141,5.97965z" fill="#77500c" fill-rule="nonzero" stroke="none" stroke-width="1" stroke-linecap="butt"/><path d="M293.03117,148.84169c0.84148,0 11.26881,4.1661 12.02292,4.80338c0.17523,0.14816 -0.3552,0.61354 -1.17911,1.03381c-1.75419,0.89514 -5.80394,4.58398 -7.81362,7.11839c-0.77405,0.97588 -1.40706,1.67537 -1.40706,1.5538c0,-0.12157 -0.83103,-3.04301 -1.84726,-6.49156c-1.73188,-5.88087 -1.81118,-6.32535 -1.27457,-7.14404c0.35331,-0.53898 0.92744,-0.87377 1.49872,-0.87377z" fill="#77500c" fill-rule="nonzero" stroke="none" stroke-width="1" stroke-linecap="butt"/><path d="M321.64628,180.19844c0.79933,0 1.60472,0.45398 1.60472,1.25365v0c0,1.5146 -1.22808,2.74236 -2.74269,2.74236c-1.51461,0 -2.74237,-1.22776 -2.74237,-2.74236v0c0,-0.79967 0.80506,-1.25365 1.60473,-1.25365z" fill="#945600" fill-rule="evenodd" stroke="#000000" stroke-width="2" stroke-linecap="butt"/><path d="M326.82746,175.54585c-1.61975,0 -2.93282,-1.31307 -2.93282,-2.93282c0,-1.61975 1.31306,-2.93281 2.93282,-2.93281c1.61975,0 2.93282,1.31306 2.93282,2.93281c0,1.61975 -1.31307,2.93282 -2.93282,2.93282z" fill="#000000" fill-rule="nonzero" stroke="none" stroke-width="1" stroke-linecap="butt"/><path d="M310.5997,172.62731c0,-1.61975 1.31307,-2.93282 2.93282,-2.93282c1.61975,0 2.93282,1.31307 2.93282,2.93282c0,1.61975 -1.31307,2.93282 -2.93282,2.93282c-1.61975,0 -2.93282,-1.31307 -2.93282,-2.93282z" fill="#000000" fill-rule="nonzero" stroke="none" stroke-width="1" stroke-linecap="butt"/><path d="M321.41796,186.88524h0.00123c-0.00041,0.01228 -0.00082,0.02496 -0.00123,0.03764v0.13503c0.03601,1.5389 1.29462,2.77542 2.84211,2.77542c0.21727,0 0.42881,-0.02455 0.63217,-0.07079v1.92434c-0.20622,0.02742 -0.41736,0.04174 -0.63135,0.04174c-1.54995,0 -2.9264,-0.74469 -3.79058,-1.89529c-0.86458,1.15059 -2.24104,1.89529 -3.79099,1.89529c-0.21441,0 -0.42513,-0.01432 -0.63176,-0.04174v-1.92434c0.20336,0.04624 0.4149,0.07079 0.63258,0.07079c1.55935,0 2.82575,-1.25616 2.84252,-2.81183v-0.03109v-0.03109c-0.00041,-0.02496 -0.00082,-0.04951 -0.00163,-0.07406h0.00163v-3.47469h1.89529z" fill="#000000" fill-rule="evenodd" stroke="none" stroke-width="1" stroke-linecap="butt"/><path d="M317.72721,173.68302c0.40211,0.24127 0.16084,0.64338 0.16084,0.64338l-0.22679,0.37695c-0.50636,0.75752 -1.1937,1.82513 -2.14453,2.05836c-1.91572,0.46991 -4.35662,-0.04282 -5.73912,-1.41394c0,0 -0.33159,-0.33159 0,-0.66318c0.33159,-0.33159 0.66318,0 0.66318,0c1.179,1.19075 3.23043,1.4988 4.86046,1.16434c0.659,-0.13522 1.24386,-1.16065 1.57965,-1.66581l0.20293,-0.33924c0,0 0.24126,-0.40212 0.64338,-0.16084z" fill="#cc5b14" fill-rule="nonzero" stroke="none" stroke-width="0.5" stroke-linecap="butt"/><path d="M309.98705,177.22897c-0.33159,0.33159 -0.66318,0 -0.66318,0l-0.07176,-0.08464c-0.40118,-0.26853 -0.80741,-0.47128 -1.23873,-0.68694c0,0 -0.41943,-0.20972 -0.20971,-0.62915c0.20971,-0.41943 0.62914,-0.20972 0.62914,-0.20972c0.46584,0.23292 0.90502,0.4568 1.33954,0.74544l0.21471,0.20183c0,0 0.33159,0.33159 0,0.66318z" fill="#cc5b14" fill-rule="nonzero" stroke="none" stroke-width="0.5" stroke-linecap="butt"/><path d="M320.41809,174.82555c0.28136,0.37515 -0.09379,0.65651 -0.09379,0.65651l-0.11694,-0.03147c-0.08364,0.28212 -0.12825,0.5796 -0.1252,0.87384c0,0 0,0.46894 -0.46894,0.46894c-0.46894,0 -0.46894,-0.46894 -0.46894,-0.46894c0.00305,-0.38096 0.05946,-0.76437 0.16128,-1.13149l0.45601,-0.46118c0,0 0.37515,-0.28136 0.65651,0.09379z" fill="#cc5b14" fill-rule="nonzero" stroke="none" stroke-width="0.5" stroke-linecap="butt"/><path d="M324.09103,173.92915l0.20293,0.33924c0.33578,0.50516 0.92064,1.53059 1.57965,1.66581c1.63004,0.33447 3.68146,0.02643 4.86046,-1.16433c0,0 0.33159,-0.33159 0.66318,0c0.33159,0.33159 0,0.66318 0,0.66318c-1.38249,1.37112 -3.82341,1.88385 -5.73912,1.41394c-0.95084,-0.23323 -1.63816,-1.30084 -2.14453,-2.05836l-0.22679,-0.37695c0,0 -0.24126,-0.40211 0.16084,-0.64338c0.40211,-0.24127 0.64338,0.16085 0.64338,0.16085z" data-paper-data="{&quot;index&quot;:null}" fill="#cc5b14" fill-rule="nonzero" stroke="none" stroke-width="0.5" stroke-linecap="butt"/><path d="M332.04507,176.65107l0.21471,-0.20183c0.43453,-0.28864 0.8737,-0.51251 1.33954,-0.74544c0,0 0.41943,-0.20972 0.62915,0.20971c0.20971,0.41943 -0.20971,0.62915 -0.20971,0.62915c-0.43133,0.21566 -0.83755,0.41841 -1.23873,0.68694l-0.07176,0.08465c0,0 -0.33159,0.33159 -0.66318,0c-0.33159,-0.33159 0,-0.66318 0,-0.66318z" data-paper-data="{&quot;index&quot;:null}" fill="#cc5b14" fill-rule="nonzero" stroke="none" stroke-width="0.5" stroke-linecap="butt"/><path d="M322.27055,174.81704l0.45601,0.46118c0.10182,0.36712 0.15823,0.75052 0.16128,1.13149c0,0 -0.00001,0.46894 -0.46894,0.46894c-0.46894,0 -0.46894,-0.46894 -0.46894,-0.46894c0.00306,-0.29423 -0.04155,-0.59172 -0.1252,-0.87384l-0.11694,0.03147c0,0 -0.37515,-0.28136 -0.09379,-0.65651c0.28136,-0.37515 0.65651,-0.09379 0.65651,-0.09379z" data-paper-data="{&quot;index&quot;:null}" fill="#cc5b14" fill-rule="nonzero" stroke="none" stroke-width="0.5" stroke-linecap="butt"/><path d="M327.67866,152.94886c0,0.46894 -0.46894,0.46894 -0.46894,0.46894c-1.79047,0 -4.08227,0 -5.87273,0c-3.60922,0 -7.26302,-0.08582 -10.75723,0.913c0,0 -0.45089,0.12883 -0.57972,-0.32207c-0.12883,-0.45089 0.32207,-0.57973 0.32207,-0.57973c3.58067,-1.02257 7.3166,-0.94908 11.01488,-0.94908c1.79047,0 3.58093,0 5.3714,0h0.50133c0,0 0.46894,0 0.46894,0.46894z" fill="#cc5b14" fill-rule="nonzero" stroke="none" stroke-width="0.5" stroke-linecap="butt"/><path d="M328.6797,156.74302c0,0.46894 -0.46894,0.46894 -0.46894,0.46894h-0.21485c-2.10827,0 -4.18761,0.35657 -6.30245,0.35809c-3.83673,-0.0036 -8.02948,-0.27839 -11.78698,0.56178c0,0 -0.45777,0.10173 -0.5595,-0.35605c-0.10173,-0.45777 0.35605,-0.5595 0.35605,-0.5595c3.83743,-0.84791 8.07359,-0.5807 11.99043,-0.58412c2.1144,0.00161 4.19345,-0.35809 6.30245,-0.35809h0.21485c0,0 0.46894,0 0.46894,0.46894z" fill="#cc5b14" fill-rule="nonzero" stroke="none" stroke-width="0.5" stroke-linecap="butt"/><path d="M331.52264,160.89529c0,0.46894 -0.46894,0.46894 -0.46894,0.46894c-2.74083,0 -5.98299,0 -8.72382,0c-1.70554,0 -3.45758,-0.11401 -5.15911,0.01169c-1.10684,0.08177 -2.17046,0.48929 -3.27233,0.56008c-1.77466,0.11401 -3.57958,-0.15466 -5.34649,0.06917c0,0 -0.46531,0.05817 -0.52348,-0.40715c-0.05817,-0.46532 0.40715,-0.52348 0.40715,-0.52348c1.78633,-0.22058 3.60316,0.03441 5.39633,-0.07406c1.09799,-0.06642 2.16487,-0.47764 3.26944,-0.55988c1.72454,-0.12839 3.49984,-0.01425 5.22848,-0.01425c2.74083,0 5.48166,0 8.22249,0h0.50134c0,0 0.46894,0.00001 0.46894,0.46894z" fill="#cc5b14" fill-rule="nonzero" stroke="none" stroke-width="0.5" stroke-linecap="butt"/><path d="M315.25033,194.64453c-0.33159,0.33159 -0.66317,0 -0.66317,0l-0.07162,-0.07161c-0.39756,-0.39829 -0.63855,-0.83478 -0.96907,-1.26052c-0.4515,-0.58156 -0.85567,-0.36737 -1.26733,-1.08154c0,0 -0.20972,-0.41943 0.20971,-0.62915c0.41943,-0.20971 0.62915,0.20972 0.62915,0.20972c0.15539,0.4561 0.7864,0.48691 1.1677,0.92379c0.32522,0.37263 0.52358,0.80581 0.89302,1.17452l0.07161,0.07162c0,0 0.33159,0.33159 0,0.66318z" fill="#cccccc" fill-rule="nonzero" stroke="none" stroke-width="0.5" stroke-linecap="butt"/><path d="M326.57202,195.99656l0.07161,-0.07162c0.36944,-0.36871 0.56779,-0.80189 0.89301,-1.17452c0.3813,-0.43688 1.01232,-0.46768 1.16771,-0.92378c0,0 0.20971,-0.41943 0.62914,-0.20972c0.41943,0.20971 0.20971,0.62914 0.20971,0.62914c-0.41165,0.71417 -0.81583,0.49998 -1.26733,1.08154c-0.33052,0.42574 -0.57151,0.86223 -0.96907,1.26052l-0.07162,0.07162c0,0 -0.33158,0.33159 -0.66317,0c-0.33159,-0.33159 0,-0.66318 0,-0.66318z" data-paper-data="{&quot;index&quot;:null}" fill="#cccccc" fill-rule="nonzero" stroke="none" stroke-width="0.5" stroke-linecap="butt"/><path d="M317.6487,186.12311c0.4354,0.17416 0.26124,0.60956 0.26124,0.60956l-0.15921,0.39365c-0.57037,1.13569 -1.36412,2.08727 -2.71123,2.12131c0,0 -0.46894,-0.00001 -0.46894,-0.46894c0,-0.46894 0.46894,-0.46894 0.46894,-0.46894c0.94049,0.03878 1.49472,-0.84376 1.87237,-1.60287l0.12727,-0.32254c0,0 0.17416,-0.4354 0.60955,-0.26124z" fill="#cccccc" fill-rule="nonzero" stroke="none" stroke-width="0.5" stroke-linecap="butt"/><path d="M326.1476,187.99744c-0.07709,0.46255 -0.53965,0.38546 -0.53965,0.38546l-0.53734,-0.10315c-1.07157,-0.4597 -1.2474,-1.08697 -2.00895,-1.81828c0,0 -0.33159,-0.33158 0,-0.66318c0.33159,-0.33159 0.66318,0 0.66318,0c0.6997,0.71988 0.74961,1.20602 1.71522,1.61942l0.32208,0.04009c0,0 0.46255,0.07709 0.38546,0.53965z" fill="#cccccc" fill-rule="nonzero" stroke="none" stroke-width="0.5" stroke-linecap="butt"/><path d="M287.58391,212.47615c0,0 -5.31093,-42.88228 8.26532,-43.20144c10.78484,-0.25354 10.48765,16.1694 5.45887,15.95618c-1.67556,-0.07105 -3.045,-1.62991 -3.045,-2.59094c0,-1.2053 0.39353,-5.9944 -2.62299,-5.9944c-3.3951,0 -1.90911,35.88856 -1.90911,35.88856z" data-paper-data="{&quot;index&quot;:null}" fill="#99440f" fill-rule="nonzero" stroke="#000000" stroke-width="0" stroke-linecap="round"/></g></g></svg>