<svg version="1.1" xmlns="http://www.w3.org/2000/svg" xmlns:xlink="http://www.w3.org/1999/xlink" width="162.44319" height="159.4083" viewBox="0,0,162.44319,159.4083"><g transform="translate(-98.77841,-240.29585)"><g data-paper-data="{&quot;isPaintingLayer&quot;:true}" stroke-linecap="butt" stroke-linejoin="miter" stroke-miterlimit="10" stroke-dasharray="" stroke-dashoffset="0" style="mix-blend-mode: normal"><path d="M118.58119,309.46168l9.77,4.09753l3.17594,-1.12717c10.42194,-3.69974 23.61429,-3.61878 33.12238,0.20347l2.99359,1.20321l10.07485,-4.22214c5.54011,-2.32334 10.59161,-4.22989 11.22314,-4.23834c1.5327,-0.02042 3.8145,1.83121 4.21229,3.41813c0.30978,1.23489 -0.04154,2.67466 -3.21043,13.14377c-2.84011,9.38418 -2.81617,8.90191 -0.6273,12.82554c5.16908,9.26591 8.07326,20.25318 8.17393,30.92788c0.07251,7.56846 -0.72446,11.24919 -3.47093,16.03315c-5.2261,9.10397 -16.97517,15.45021 -31.77202,17.16244c-6.29977,0.72868 -21.96823,0.72868 -28.27997,-0.00141c-11.22103,-1.29614 -20.40455,-5.14233 -26.88949,-11.25975c-6.12587,-5.77878 -8.32389,-11.58854 -8.29855,-21.93444c0.02675,-10.59654 2.64227,-21.13887 7.55789,-30.46251l2.48175,-4.70653l-1.17645,-4.02078c-0.64702,-2.21069 -1.78898,-6.09912 -2.53737,-8.64001c-2.6296,-8.92656 -2.63312,-8.98287 -0.56675,-11.27805c0.66391,-0.73784 1.73053,-1.22292 2.68733,-1.22292c0.87231,0 5.98295,1.84389 11.3562,4.09893z" fill="#ff7319" fill-rule="evenodd" stroke="none" stroke-width="1"/><path d="M161.60381,350.27854l2.42331,0.68503c6.14629,2.32615 11.71175,5.96394 16.30985,10.6592l1.23137,1.25742c4.18342,5.27539 6.53351,11.53222 6.61589,17.61021c0.05843,4.31015 -0.58717,6.40608 -2.80984,9.13002c-4.22989,5.18457 -13.73939,8.79772 -25.71515,9.77281c-5.09867,0.41468 -17.78059,0.41468 -22.88842,-0.00071c-9.08215,-0.73854 -16.51543,-2.92811 -21.76407,-6.41172c-4.95787,-3.2907 -6.73699,-6.59899 -6.71586,-12.49042c0.02112,-6.03364 2.13817,-12.03631 6.11672,-17.34549l2.00864,-2.68029c3.95883,-3.93489 8.7069,-6.98621 13.93088,-8.9526l1.87839,-0.70757l2.57046,-0.64209c8.43513,-2.10649 19.11264,-2.06073 26.80783,0.11617z" fill="#feffff" fill-rule="nonzero" stroke="none" stroke-width="1"/><path d="M188.85589,320.06244c-2.51343,8.8991 -2.68381,9.29899 -3.44136,8.06621c-1.49539,-2.43388 -9.60666,-10.03331 -12.47844,-11.69203l-2.86615,-1.6545l8.31686,-3.58499c13.81613,-5.95479 14.49272,-5.3824 10.46911,8.8653z" fill="#77500c" fill-rule="nonzero" stroke="none" stroke-width="1"/><path d="M107.93396,307.53682c1.24757,0 16.70692,6.17657 17.82494,7.12139c0.25979,0.21966 -0.52662,0.90962 -1.74813,1.5327c-2.60073,1.32712 -8.60481,6.79612 -11.58432,10.55359c-1.14759,1.44681 -2.08608,2.48386 -2.08608,2.30363c0,-0.18024 -1.23207,-4.5115 -2.73872,-9.62426c-2.56765,-8.71886 -2.68522,-9.37784 -1.88965,-10.59161c0.52381,-0.79909 1.375,-1.29544 2.22196,-1.29544z" fill="#77500c" fill-rule="nonzero" stroke="none" stroke-width="1"/><path d="M219.49793,279.20123l6.80035,1.82206l-30.97716,115.60869l-6.80035,-1.82206z" fill="#787878" fill-rule="nonzero" stroke="none" stroke-width="1"/><path d="M218.47143,240.29585l28.16874,7.54734l14.58142,25.25541l-7.54803,28.16874l-25.25541,14.58142l-28.16874,-7.54803l-14.58071,-25.25541l7.54734,-28.16874z" fill="#dc143c" fill-rule="nonzero" stroke="none" stroke-width="1"/><path d="M201.61795,271.83036c2.52207,1.78284 3.52561,3.63224 3.01244,5.54726c-0.38192,1.42738 -1.30615,2.5093 -2.7709,3.24396c-1.46566,0.73465 -3.04343,0.87502 -4.73331,0.42201c-0.82672,-0.22058 -1.7628,-0.67268 -2.80735,-1.35537c-1.04001,-0.70185 -1.88313,-1.50121 -2.52845,-2.39901c-0.09205,-0.10481 -0.12123,-0.22331 -0.08568,-0.35548c0.03555,-0.13125 0.11485,-0.24062 0.23881,-0.32814c0.80119,-0.51042 1.44014,-0.90236 1.91593,-1.17763c0.24883,-0.175 0.46029,-0.13855 0.6353,0.10938c0.2215,0.3017 0.48764,0.58426 0.79936,0.84858c0.31172,0.26523 0.62163,0.49858 0.9288,0.70185c0.30808,0.20326 0.61433,0.37644 0.91876,0.51773c0.30353,0.14219 0.57789,0.24611 0.82215,0.31082c0.39467,0.10573 0.78296,0.15951 1.16487,0.16134c0.38738,-0.01732 0.73739,-0.08385 1.05003,-0.20143c0.3327,-0.11212 0.60887,-0.27982 0.82945,-0.50222c0.24427,-0.23698 0.40926,-0.51498 0.49494,-0.834c0.07565,-0.28165 -0.06745,-0.6116 -0.4284,-0.99077c-0.34818,-0.35456 -1.18674,-0.98166 -2.51569,-1.88129c-1.46475,-0.99625 -2.49016,-1.86488 -3.07624,-2.60592c-1.10471,-1.36358 -1.44287,-2.8429 -1.01538,-4.43891c0.18684,-0.69547 0.525,-1.31982 1.01538,-1.87217c0.49494,-0.5724 1.06916,-1.02269 1.72087,-1.35081c0.6754,-0.34272 1.42647,-0.55418 2.25317,-0.63438c0.85041,-0.09387 1.699,-0.02825 2.54393,0.1987c0.52592,0.14036 1.09742,0.37462 1.71449,0.70093c0.64077,0.31263 1.29157,0.73831 1.95239,1.2779c0.66082,0.53959 1.21227,1.11019 1.65524,1.71176c0.09205,0.10573 0.12123,0.22331 0.08568,0.35548c-0.0164,0.13581 -0.08659,0.24792 -0.21056,0.33541c-1.05824,0.64259 -1.71814,1.04001 -1.97973,1.1913c-0.22422,0.16134 -0.42657,0.12669 -0.60705,-0.10208c-1.07828,-1.23506 -2.22765,-2.01619 -3.44904,-2.34341c-0.80757,-0.21693 -1.56683,-0.1987 -2.2787,0.05378c-0.69272,0.25704 -1.12477,0.70457 -1.29611,1.34351c-0.16589,0.61981 0.08477,1.26057 0.75288,1.92231c0.2689,0.27344 0.5715,0.53595 0.90692,0.78661c0.35366,0.25613 0.7948,0.56512 1.32164,0.92789c0.52684,0.36277 0.87684,0.59793 1.04911,0.70457zM224.38214,269.26272c0.13125,0.03555 0.23152,0.11302 0.29988,0.23152c0.07383,0.10026 0.09297,0.21693 0.05834,0.34818l-0.58881,2.19758c-0.03555,0.13125 -0.11302,0.23152 -0.23152,0.29988c-0.11394,0.05014 -0.23698,0.05742 -0.36823,0.02279l-5.32485,-1.42738l-3.73706,13.94563c-0.02553,0.09387 -0.06654,0.17409 -0.12396,0.23881c-0.05834,0.06472 -0.12942,0.10664 -0.21512,0.12396c-0.08477,0.01732 -0.16498,0.0164 -0.23973,-0.00456l-2.19758,-0.58881c-0.13217,-0.03463 -0.23152,-0.11212 -0.30078,-0.23152c-0.05014,-0.11394 -0.05742,-0.23608 -0.02187,-0.36823l3.73706,-13.94563l-5.32485,-1.42647c-0.13217,-0.03555 -0.23425,-0.103 -0.30808,-0.20326c-0.06926,-0.1194 -0.08568,-0.24427 -0.05014,-0.37644l0.58881,-2.19666c0.03463,-0.13217 0.10938,-0.22241 0.22331,-0.27253c0.1194,-0.06926 0.24427,-0.08568 0.37644,-0.05014zM238.80083,282.06444c-0.04557,0.16953 -0.08295,0.30991 -0.11302,0.42293c-0.03007,0.11302 -0.06836,0.25339 -0.11302,0.42293c-0.8659,3.23027 -2.23404,5.32941 -4.10348,6.29832c-1.49391,0.76747 -3.34786,0.88505 -5.56002,0.35183l-0.05651,-0.01459c-2.18208,-0.64532 -3.72885,-1.67347 -4.63851,-3.08535c-1.13571,-1.77374 -1.27061,-4.27574 -0.4047,-7.50603c0.04557,-0.16953 0.08295,-0.30991 0.11302,-0.42293c0.03555,-0.13125 0.07293,-0.27253 0.11302,-0.42201c0.8659,-3.23119 2.23404,-5.33033 4.10348,-6.29923c1.49938,-0.7857 3.35242,-0.90328 5.56002,-0.35183l0.05651,0.01459c2.18755,0.6271 3.73342,1.65524 4.63851,3.08535c1.13571,1.77374 1.27061,4.27574 0.4047,7.50603zM235.44749,282.07173c0.03463,-0.13125 0.06745,-0.25339 0.09754,-0.3655l0.03007,-0.11302c0.02553,-0.09387 0.05834,-0.21602 0.09843,-0.36641c0.30717,-1.14573 0.47397,-2.10734 0.50131,-2.88484c0.02734,-0.7784 -0.14311,-1.45745 -0.51042,-2.03989c-0.4685,-0.72918 -1.39274,-1.29886 -2.77272,-1.70902c-1.40003,-0.33452 -2.49471,-0.30626 -3.28405,0.08659c-0.60977,0.31993 -1.09651,0.82307 -1.46202,1.51032c-0.34637,0.69272 -0.67357,1.61149 -0.98075,2.75723c-0.03463,0.13125 -0.06745,0.25339 -0.09754,0.36641l-0.03007,0.11212c-0.02553,0.09387 -0.05834,0.21602 -0.09843,0.36641c-0.20143,0.75106 -0.35092,1.38544 -0.44936,1.90317c-0.0793,0.52228 -0.09116,1.05276 -0.03373,1.59144c0.05651,0.53869 0.21147,1.01265 0.46395,1.42282c0.48764,0.73374 1.42099,1.30615 2.80097,1.71631c1.40003,0.33541 2.4856,0.30353 3.25671,-0.09387c0.42293,-0.22878 0.7948,-0.56147 1.11291,-0.99989c0.31901,-0.43842 0.57424,-0.90328 0.76655,-1.39548c0.19233,-0.49129 0.38919,-1.11291 0.59064,-1.86488zM251.27896,276.4707c1.52217,0.40742 2.66516,1.28701 3.42989,2.63965c0.78843,1.33896 0.98166,2.75905 0.57878,4.26207l-0.09754,0.36641c-0.40288,1.50211 -1.28336,2.64511 -2.64055,3.42899c-1.33349,0.77019 -2.76088,0.95158 -4.28213,0.54415l-3.24031,-0.86865l-1.55499,5.80339c-0.03555,0.13217 -0.11212,0.23243 -0.23152,0.30078c-0.1194,0.06836 -0.24427,0.08568 -0.37554,0.05014l-2.16932,-0.58152c-0.13217,-0.03463 -0.23152,-0.11212 -0.30078,-0.23152c-0.06836,-0.1185 -0.08568,-0.24427 -0.05014,-0.37554l4.4462,-16.59438c0.03555,-0.13125 0.11029,-0.2215 0.22422,-0.27161c0.1194,-0.06926 0.24427,-0.08568 0.37554,-0.05014zM252.0911,282.90847l0.09754,-0.36641c0.17136,-0.63894 0.08295,-1.246 -0.26615,-1.82296c-0.32539,-0.59064 -0.81576,-0.97346 -1.47387,-1.14938l-3.2394,-0.86865l-1.35172,5.04322l3.24031,0.86773c0.65717,0.17682 1.27151,0.09935 1.84301,-0.2306c0.5952,-0.34362 0.97893,-0.83491 1.15028,-1.47296z" fill="#feffff" fill-rule="nonzero" stroke="none" stroke-width="1"/><path d="M150.22133,362.7409h0.00222c-0.00074,0.02216 -0.00148,0.04505 -0.00222,0.06795v0.24374c0.065,2.77789 2.33695,5.00996 5.13035,5.00996c0.3922,0 0.77406,-0.04432 1.14114,-0.12778v3.47366c-0.37226,0.04949 -0.75338,0.07534 -1.13967,0.07534c-2.79784,0 -5.2825,-1.34426 -6.84244,-3.42122c-1.56067,2.07696 -4.04534,3.42122 -6.84318,3.42122c-0.38703,0 -0.76741,-0.02585 -1.14041,-0.07534v-3.47366c0.36709,0.08346 0.74895,0.12778 1.14188,0.12778c2.81482,0 5.10081,-2.26752 5.13109,-5.07569v-0.05613v-0.05613c-0.00074,-0.04505 -0.00148,-0.08937 -0.00295,-0.13369h0.00295v-6.27223h3.42122z" fill="#000000" fill-rule="evenodd" stroke="none" stroke-width="1"/><path d="M150.35816,354.02571c1.18508,0 2.37913,0.67306 2.37913,1.85863v0c0,2.24552 -1.82074,4.06577 -4.06627,4.06577c-2.24552,0 -4.06577,-1.82025 -4.06577,-4.06577v0c0,-1.18557 1.19356,-1.85863 2.37914,-1.85863z" fill="#77500c" fill-rule="evenodd" stroke="#000000" stroke-width="2.5"/><path d="M133.98073,342.8009c0,-2.40142 1.94673,-4.34814 4.34814,-4.34814c2.40142,0 4.34814,1.94673 4.34814,4.34814c0,2.40142 -1.94673,4.34814 -4.34814,4.34814c-2.40142,0 -4.34814,-1.94673 -4.34814,-4.34814z" fill="#000000" fill-rule="nonzero" stroke="none" stroke-width="1"/><path d="M153.69392,342.8009c0,-2.40142 1.94673,-4.34814 4.34814,-4.34814c2.40142,0 4.34814,1.94673 4.34814,4.34814c0,2.40142 -1.94673,4.34814 -4.34814,4.34814c-2.40142,0 -4.34814,-1.94673 -4.34814,-4.34814z" fill="#000000" fill-rule="nonzero" stroke="none" stroke-width="1"/><path d="M135.6455,334.00328c-0.00147,0.06268 -0.00221,0.1261 -0.00221,0.18951c0,4.71643 3.8227,8.53913 8.53913,8.53913c0.10324,0 0.20647,-0.00147 0.30971,-0.00516v-3.41934c-0.10324,0.0059 -0.20721,0.00885 -0.31118,0.00885c-2.82942,0 -5.12348,-2.29406 -5.12348,-5.12348c0,-0.06342 0.00074,-0.12683 0.00295,-0.18951zM160.8035,334.00328c0.00147,0.06268 0.00221,0.1261 0.00221,0.18951c0,4.71643 -3.8227,8.53913 -8.53913,8.53913c-0.13421,0 -0.26768,-0.00295 -0.40041,-0.00959v-3.42155c0.13273,0.01032 0.26694,0.01549 0.40189,0.01549c2.82942,0 5.12348,-2.29406 5.12348,-5.12348c0,-0.06342 -0.00147,-0.12683 -0.00369,-0.18951z" fill="#000000" fill-rule="evenodd" stroke="none" stroke-width="1"/></g></g></svg>