<svg version="1.1" xmlns="http://www.w3.org/2000/svg" xmlns:xlink="http://www.w3.org/1999/xlink" width="226.02499" height="157.97535" viewBox="0,0,226.02499,157.97535"><g transform="translate(-207.2375,-241.25295)"><g data-paper-data="{&quot;isPaintingLayer&quot;:true}" fill-rule="nonzero" stroke-linejoin="miter" stroke-miterlimit="10" stroke-dasharray="" stroke-dashoffset="0" style="mix-blend-mode: normal"><g stroke-width="0" stroke-linecap="butt"><path d="M260.1954,360.78666v-119.53372h119.53371v119.53372z" fill="#b1ddff" stroke="#000000"/><path d="M260.52973,360.93081v-50.81216h119.27488v50.81216z" fill="#5c9e25" stroke="none"/></g><path d="M374.42291,252.77148c0,3.43556 -10.75802,6.22063 -24.02872,6.22063c-13.27069,0 -24.02871,-2.78507 -24.02871,-6.22063c0,-3.43556 10.75802,-6.22063 24.02871,-6.22063c13.27069,0 24.02872,2.78507 24.02872,6.22063z" fill="#ffffff" stroke="none" stroke-width="0" stroke-linecap="butt"/><path d="M377.59421,260.57776c0,3.16611 -3.93186,5.73274 -8.78207,5.73274c-4.85021,0 -8.78207,-2.56663 -8.78207,-5.73274c0,-3.16611 3.93186,-5.73274 8.78207,-5.73274c4.85021,0 8.78207,2.56663 8.78207,5.73274z" fill="#ffffff" stroke="none" stroke-width="0" stroke-linecap="butt"/><path d="M378.81394,251.91767c0,3.90711 -3.71343,7.07444 -8.29417,7.07444c-4.58074,0 -8.29417,-3.16733 -8.29417,-7.07444c0,-3.90711 3.71343,-7.07444 8.29417,-7.07444c4.58074,0 8.29417,3.16733 8.29417,7.07444z" fill="#ffffff" stroke="none" stroke-width="0" stroke-linecap="butt"/><path d="M366.86057,256.06475c0,5.25439 -5.07866,9.51391 -11.3435,9.51391c-6.26484,0 -11.3435,-4.25953 -11.3435,-9.51391c0,-5.25438 5.07866,-9.5139 11.3435,-9.5139c6.26484,0 11.3435,4.25952 11.3435,9.5139z" fill="#ffffff" stroke="none" stroke-width="0" stroke-linecap="butt"/><path d="M348.32065,256.06475c0,3.63765 -5.2971,6.58655 -11.83139,6.58655c-6.5343,0 -11.8314,-2.9489 -11.8314,-6.58655c0,-3.63765 5.2971,-6.58655 11.8314,-6.58655c6.5343,0 11.83139,2.9489 11.83139,6.58655z" fill="#ffffff" stroke="none" stroke-width="0" stroke-linecap="butt"/><path d="M365.39689,247.16071c0,1.95355 -4.80561,3.53722 -10.73364,3.53722c-5.92802,0 -10.73364,-1.58367 -10.73364,-3.53722c0,-1.95355 4.80561,-3.53722 10.73364,-3.53722c5.92802,0 10.73364,1.58367 10.73364,3.53722z" fill="#ffffff" stroke="none" stroke-width="0" stroke-linecap="butt"/><path d="M357.59061,250.08807c0,2.35773 -8.68288,4.26906 -19.39374,4.26906c-10.71087,0 -19.39373,-1.91132 -19.39373,-4.26906c0,-2.35773 8.68287,-4.26906 19.39373,-4.26906c10.71087,0 19.39374,1.91133 19.39374,4.26906z" fill="#ffffff" stroke="none" stroke-width="0" stroke-linecap="butt"/><path d="M305.63004,253.38134c0,2.15564 -6.71693,3.90314 -15.0027,3.90314c-8.28577,0 -15.0027,-1.7475 -15.0027,-3.90314c0,-2.15564 6.71694,-3.90314 15.0027,-3.90314c8.28577,0 15.0027,1.7475 15.0027,3.90314z" fill="#ffffff" stroke="none" stroke-width="0" stroke-linecap="butt"/><path d="M287.09011,249.84412c0,2.49246 -4.47796,4.513 -10.0018,4.513c-5.52384,0 -10.0018,-2.02054 -10.0018,-4.513c0,-2.49246 4.47796,-4.51301 10.0018,-4.51301c5.52384,0 10.0018,2.02055 10.0018,4.51301z" fill="#ffffff" stroke="none" stroke-width="0" stroke-linecap="butt"/><path d="M286.11433,256.55265c0,2.69455 -4.58718,4.87892 -10.24574,4.87892c-5.65857,0 -10.24575,-2.18437 -10.24575,-4.87892c0,-2.69456 4.58718,-4.87893 10.24575,-4.87893c5.65857,0 10.24575,2.18438 10.24575,4.87893z" fill="#ffffff" stroke="none" stroke-width="0" stroke-linecap="butt"/><path d="M317.82735,255.57686c0,5.25439 -5.57014,9.51391 -12.44126,9.51391c-6.87112,0 -12.44127,-4.25952 -12.44127,-9.51391c0,-5.25439 5.57015,-9.51391 12.44127,-9.51391c6.87112,0 12.44126,4.25952 12.44126,9.51391z" fill="#ffffff" stroke="none" stroke-width="0" stroke-linecap="butt"/><path d="M302.45873,248.25847c0,2.4251 -3.65881,4.39103 -8.1722,4.39103c-4.51339,0 -8.17221,-1.96594 -8.17221,-4.39103c0,-2.4251 3.65882,-4.39103 8.17221,-4.39103c4.51339,0 8.1722,1.96593 8.1722,4.39103z" fill="#ffffff" stroke="none" stroke-width="0" stroke-linecap="butt"/><path d="M301.72689,257.52843c0,2.4251 -5.46092,4.39103 -12.19732,4.39103c-6.7364,0 -12.19732,-1.96594 -12.19732,-4.39103c0,-2.4251 5.46093,-4.39103 12.19732,-4.39103c6.7364,0 12.19732,1.96594 12.19732,4.39103z" fill="#ffffff" stroke="none" stroke-width="0" stroke-linecap="butt"/><path d="M264.28625,349.25787l6.21437,-11.24506" fill="none" stroke="#406f19" stroke-width="1" stroke-linecap="round"/><path d="M284.70491,334.75766l-4.73476,10.06137l5.03068,-5.03068" fill="none" stroke="#406f19" stroke-width="1" stroke-linecap="round"/><path d="M294.47036,356.95186l6.5103,-5.62253" fill="none" stroke="#406f19" stroke-width="1" stroke-linecap="round"/><path d="M329.38922,346.89049l16.86759,-11.54098l1.18369,-4.14292" fill="none" stroke="#406f19" stroke-width="1" stroke-linecap="round"/><path d="M353.35895,332.98213l7.69399,-10.35729" fill="none" stroke="#406f19" stroke-width="1" stroke-linecap="round"/><path d="M341.22613,354.58448l3.25515,-6.21437" fill="none" stroke="#406f19" stroke-width="1" stroke-linecap="round"/><path d="M320.21562,352.2171l2.07146,-0.59185" fill="none" stroke="#406f19" stroke-width="1" stroke-linecap="round"/><path d="M312.22571,346.29864l8.87768,-4.43884" fill="none" stroke="#406f19" stroke-width="1" stroke-linecap="round"/><path d="M283.52122,343.0435l-12.72467,10.06137l3.25515,-4.43884" fill="none" stroke="#406f19" stroke-width="1" stroke-linecap="round"/><path d="M293.28667,340.97204l5.62253,-5.62253" fill="none" stroke="#406f19" stroke-width="1" stroke-linecap="round"/><path d="M301.86842,343.63534l11.54098,-9.1736" fill="none" stroke="#406f19" stroke-width="1" stroke-linecap="round"/><path d="M261.0311,354.8804l5.62253,-9.76545l4.14292,-4.73476" fill="none" stroke="#406f19" stroke-width="1" stroke-linecap="round"/><path d="M277.30684,353.40079l3.25515,-4.73476l-7.69399,6.21437l1.77554,-1.18369" fill="none" stroke="#406f19" stroke-width="1" stroke-linecap="round"/><path d="M301.86842,354.8804l8.28583,-10.06137" fill="none" stroke="#406f19" stroke-width="1" stroke-linecap="round"/><path d="M310.15425,353.10486l7.10214,-11.54098" fill="none" stroke="#406f19" stroke-width="1" stroke-linecap="round"/><path d="M315.77678,355.17632l4.73476,-5.03068l3.25515,-0.59185l5.62253,-5.32661" fill="none" stroke="#406f19" stroke-width="1" stroke-linecap="round"/><path d="M326.43,352.51302l11.24506,-10.65321" fill="none" stroke="#406f19" stroke-width="1" stroke-linecap="round"/><path d="M337.37913,352.2171l4.73476,-9.46952" fill="none" stroke="#406f19" stroke-width="1" stroke-linecap="round"/><path d="M343.00166,356.06409l11.8369,-15.97982" fill="none" stroke="#406f19" stroke-width="1" stroke-linecap="round"/><path d="M359.86925,350.44156l4.43884,-5.03068" fill="none" stroke="#406f19" stroke-width="1" stroke-linecap="round"/><path d="M365.19586,348.96195l1.18369,-2.95923l4.73476,-2.6633l-3.55107,6.80622" fill="none" stroke="#406f19" stroke-width="1" stroke-linecap="round"/><path d="M349.80788,352.80894l2.36738,-1.77554" fill="none" stroke="#406f19" stroke-width="1" stroke-linecap="round"/><path d="M326.43,354.8804l2.07146,-1.18369" fill="none" stroke="#406f19" stroke-width="1" stroke-linecap="round"/><path d="M329.98107,357.24778l15.6839,-13.02059l5.32661,-14.50021l7.10214,-7.10214" fill="none" stroke="#406f19" stroke-width="1" stroke-linecap="round"/><path d="M330.57291,337.12504l2.95923,-2.07146" fill="none" stroke="#406f19" stroke-width="1" stroke-linecap="round"/><path d="M348.32827,320.55338l0.88777,-2.07146l-2.07146,5.03068" fill="none" stroke="#406f19" stroke-width="1" stroke-linecap="round"/><path d="M358.38964,317.29823l5.91845,-4.43884l3.84699,-3.55107l4.14292,-2.36738" fill="none" stroke="#406f19" stroke-width="1" stroke-linecap="round"/><path d="M368.15509,318.186l-1.47961,4.14292" fill="none" stroke="#406f19" stroke-width="1" stroke-linecap="round"/><path d="M368.74693,313.74716l-5.32661,5.91845l5.32661,-6.21437" fill="none" stroke="#406f19" stroke-width="1" stroke-linecap="round"/><path d="M353.06303,323.80853l4.14292,-4.14292" fill="none" stroke="#406f19" stroke-width="1" stroke-linecap="round"/><path d="M352.76711,337.12504l5.62253,-7.69399" fill="none" stroke="#406f19" stroke-width="1" stroke-linecap="round"/><path d="M357.79779,335.64543l6.5103,-8.28583l10.35729,-13.02059l-2.95923,3.55107" fill="none" stroke="#406f19" stroke-width="1" stroke-linecap="round"/><path d="M362.23663,335.64543l5.03068,-5.03068" fill="none" stroke="#406f19" stroke-width="1" stroke-linecap="round"/><path d="M370.22654,332.98213l1.18369,-4.43884l-11.24506,10.65321l-7.98991,13.61244" fill="none" stroke="#406f19" stroke-width="1" stroke-linecap="round"/><path d="M365.7877,340.97204l4.43884,-3.84699" fill="none" stroke="#406f19" stroke-width="1" stroke-linecap="round"/><path d="M356.91003,355.17632l1.47961,-1.47961" fill="none" stroke="#406f19" stroke-width="1" stroke-linecap="round"/><path d="M358.98148,356.36001l3.84699,-5.32661" fill="none" stroke="#406f19" stroke-width="1" stroke-linecap="round"/><path d="M363.71625,358.72739l7.39807,-7.69399" fill="none" stroke="#406f19" stroke-width="1" stroke-linecap="round"/><path d="M373.48169,353.99263l2.95923,-8.28583" fill="none" stroke="#406f19" stroke-width="1" stroke-linecap="round"/><path d="M375.25723,343.33942l0.59185,-2.95923" fill="none" stroke="#406f19" stroke-width="1" stroke-linecap="round"/><path d="M361.94071,349.25787l3.55107,-6.5103" fill="none" stroke="#406f19" stroke-width="1" stroke-linecap="round"/><path d="M369.33878,339.49242l6.21437,-6.5103l3.84699,-10.65321" fill="none" stroke="#406f19" stroke-width="1" stroke-linecap="round"/><path d="M372.88985,339.49242l1.77554,-6.80622" fill="none" stroke="#406f19" stroke-width="1" stroke-linecap="round"/><path d="M361.34887,343.33942l4.73476,-5.62253l-2.95923,3.25515" fill="none" stroke="#406f19" stroke-width="1" stroke-linecap="round"/><path d="M355.43041,343.0435l2.95923,-4.43884" fill="none" stroke="#406f19" stroke-width="1" stroke-linecap="round"/><path d="M340.93021,341.26796l5.32661,-5.03068" fill="none" stroke="#406f19" stroke-width="1" stroke-linecap="round"/><path d="M348.62419,339.1965l12.72467,-13.02059" fill="none" stroke="#406f19" stroke-width="1" stroke-linecap="round"/><path d="M371.11431,323.21668l3.84699,-5.32661" fill="none" stroke="#406f19" stroke-width="1" stroke-linecap="round"/><path d="M370.52247,326.17591l3.84699,-5.03068" fill="none" stroke="#406f19" stroke-width="1" stroke-linecap="round"/><path d="M363.1244,318.186l1.18369,-2.07146" fill="none" stroke="#406f19" stroke-width="1" stroke-linecap="round"/><path d="M355.43041,316.11454l2.36738,-2.07146l-4.14292,5.32661l-2.07146,1.77554l-2.36738,4.43884l-19.53089,15.6839" fill="none" stroke="#406f19" stroke-width="1" stroke-linecap="round"/><path d="M352.17526,310.49201l-2.36738,2.6633l3.25515,-4.43884" fill="none" stroke="#406f19" stroke-width="1" stroke-linecap="round"/><path d="M356.91003,311.37978l1.77554,-3.55107l-4.73476,3.55107" fill="none" stroke="#406f19" stroke-width="1" stroke-linecap="round"/><path d="M361.34887,311.6757l3.84699,-4.43884" fill="none" stroke="#406f19" stroke-width="1" stroke-linecap="round"/><path d="M376.145,311.97162l1.18369,-2.07146l-1.77554,-0.29592l-3.25515,3.25515" fill="none" stroke="#406f19" stroke-width="1" stroke-linecap="round"/><path d="M263.10256,313.15531l2.36738,-3.55107" fill="none" stroke="#406f19" stroke-width="1" stroke-linecap="round"/><path d="M263.39848,319.66561l2.07146,-1.18369" fill="none" stroke="#406f19" stroke-width="1" stroke-linecap="round"/><path d="M267.5414,320.25746l-3.55107,2.36738l0.88777,-7.10214l4.43884,-5.91845" fill="none" stroke="#406f19" stroke-width="1" stroke-linecap="round"/><path d="M264.58217,329.43106l2.6633,-1.18369l3.84699,-6.5103" fill="none" stroke="#406f19" stroke-width="1" stroke-linecap="round"/><path d="M266.65363,332.98213l-2.36738,2.95923l5.91845,-4.43884l-4.73476,7.10214l2.95923,-0.29592l-3.25515,5.62253l7.10214,-5.62253l6.80622,-6.21437" fill="none" stroke="#406f19" stroke-width="1" stroke-linecap="round"/><path d="M272.57208,333.27805l1.47961,-2.6633" fill="none" stroke="#406f19" stroke-width="1" stroke-linecap="round"/><path d="M271.98024,343.63534l2.6633,-5.91845" fill="none" stroke="#406f19" stroke-width="1" stroke-linecap="round"/><path d="M276.41908,343.63534l4.73476,-4.73476" fill="none" stroke="#406f19" stroke-width="1" stroke-linecap="round"/><path d="M283.81714,346.89049l7.10214,-9.46952" fill="none" stroke="#406f19" stroke-width="1" stroke-linecap="round"/><path d="M285.59268,346.29864l-2.6633,2.6633l7.39807,-6.21437" fill="none" stroke="#406f19" stroke-width="1" stroke-linecap="round"/><path d="M282.63345,357.24778l6.21437,-4.73476l4.43884,-2.6633" fill="none" stroke="#406f19" stroke-width="1" stroke-linecap="round"/><path d="M293.28667,354.8804l5.32661,-5.91845" fill="none" stroke="#406f19" stroke-width="1" stroke-linecap="round"/><path d="M283.81714,349.55379l3.84699,-3.84699l10.94914,-3.25515l-11.54098,11.8369" fill="none" stroke="#406f19" stroke-width="1" stroke-linecap="round"/><path d="M260.73518,358.72739l4.14292,-4.14292" fill="none" stroke="#406f19" stroke-width="1" stroke-linecap="round"/><path d="M262.21479,354.58448l4.14292,-4.14292l9.1736,-8.58176" fill="none" stroke="#406f19" stroke-width="1" stroke-linecap="round"/><path d="M262.51071,327.65552l3.55107,-4.73476" fill="none" stroke="#406f19" stroke-width="1" stroke-linecap="round"/><path d="M302.16434,349.25787l5.32661,-5.62253" fill="none" stroke="#406f19" stroke-width="1" stroke-linecap="round"/><path d="M306.01134,354.8804l9.1736,-7.98991" fill="none" stroke="#406f19" stroke-width="1" stroke-linecap="round"/><path d="M295.65405,344.52311l-7.10214,5.91845l-3.55107,5.03068l15.09205,-10.65321l-5.32661,6.5103" fill="none" stroke="#406f19" stroke-width="1" stroke-linecap="round"/><path d="M274.64354,358.43147l16.27574,-9.76545" fill="none" stroke="#406f19" stroke-width="1" stroke-linecap="round"/><path d="M303.05211,340.38019l-4.43884,3.25515" fill="none" stroke="#406f19" stroke-width="1" stroke-linecap="round"/><path d="M297.42958,341.26796l7.39807,-3.84699" fill="none" stroke="#406f19" stroke-width="1" stroke-linecap="round"/><path d="M307.49095,347.18641l7.10214,-6.21437" fill="none" stroke="#406f19" stroke-width="1" stroke-linecap="round"/><path d="M314.29717,343.33942l5.32661,-3.25515l3.55107,-1.47961" fill="none" stroke="#406f19" stroke-width="1" stroke-linecap="round"/><path d="M322.87893,345.7068l4.43884,-3.55107" fill="none" stroke="#406f19" stroke-width="1" stroke-linecap="round"/><path d="M311.92979,356.65594l0.59185,-2.36738l8.28583,-8.58176" fill="none" stroke="#406f19" stroke-width="1" stroke-linecap="round"/><path d="M306.89911,358.43147l7.39807,-5.62253l8.87768,-9.76545" fill="none" stroke="#406f19" stroke-width="1" stroke-linecap="round"/><g><path d="M342.51085,313.90907c0,18.3 -16.5,24.2 -36.9,24.2c-20.4,0 -36.9,-5.9 -36.9,-24.2c0,-8.6 2.4,-18.5 7.7,-26.5l-4.3,-14.5c-0.8,-2.7 2,-5.3 4.6,-4.2l14.3,6c4.2,-1.9 9,-3 14.6,-3c5.5,0 10.3,1.2 14.5,3.1l14.4,-6c2.6,-1.1 5.4,1.5 4.6,4.2l-4.4,14.7c5.2,7.9 7.7,17.7 7.8,26.2z" fill-opacity="0.50196" fill="#000000" stroke="none" stroke-width="1" stroke-linecap="butt"/><path d="M346.27699,309.53329c0,18.3 -16.5,24.2 -36.9,24.2c-20.4,0 -36.9,-5.9 -36.9,-24.2c0,-8.6 2.4,-18.5 7.7,-26.5l-4.3,-14.5c-0.8,-2.7 2,-5.3 4.6,-4.2l14.3,6c4.2,-1.9 9,-3 14.6,-3c5.5,0 10.3,1.2 14.5,3.1l14.4,-6c2.6,-1.1 5.4,1.5 4.6,4.2l-4.4,14.7c5.2,7.9 7.7,17.7 7.8,26.2z" fill="#ff7319" stroke="none" stroke-width="1" stroke-linecap="butt"/><path d="M338.17699,321.13329c0,9.6 -12.9,12.7 -28.9,12.7c-16,0 -28.9,-3.1 -28.9,-12.7c0,-9.6 8.6,-22.1 28.9,-22.1c19.9,0 28.9,12.5 28.9,22.1z" fill="#ffffff" stroke="none" stroke-width="1" stroke-linecap="butt"/><path d="M306.07698,303.43329c0,-1.3 1.4,-1.7 3.2,-1.7c1.8,0 3.2,0.4 3.2,1.7c0,1.3 -1,2.9 -3.2,2.9c-2.2,0 -3.2,-1.6 -3.2,-2.9z" fill="#945600" stroke="#000000" stroke-width="1.5" stroke-linecap="butt"/><path d="M299.90914,292.43329c0,-1.71208 1.38792,-3.1 3.1,-3.1c1.71208,0 3.1,1.38792 3.1,3.1c0,1.71208 -1.38792,3.1 -3.1,3.1c-1.71208,0 -3.1,-1.38792 -3.1,-3.1z" fill="#000000" stroke="none" stroke-width="1" stroke-linecap="butt"/><path d="M312.70914,292.43329c0,-1.71208 1.38792,-3.1 3.1,-3.1c1.71208,0 3.1,1.38792 3.1,3.1c0,1.71208 -1.38792,3.1 -3.1,3.1c-1.71208,0 -3.1,-1.38792 -3.1,-3.1z" fill="#000000" stroke="none" stroke-width="1" stroke-linecap="butt"/><path d="M286.87699,275.83329c-2.1,1.8 -3.8,3.5 -5.4,6.1l-3.9,-13.5c-0.3,-1.6 1.2,-3 2.8,-2.5l12.9,5.4c-2.9,1.2 -4.6,2.8 -6.4,4.5z" fill="#77500c" stroke="none" stroke-width="1" stroke-linecap="butt"/><path d="M325.67699,271.33329l12.9,-5.4c1.6,-0.5 3.1,0.9 2.8,2.5l-3.8,13.5c-1.5,-2.6 -3.3,-4.3 -5.3,-6.1c-2,-1.7 -3.7,-3.3 -6.6,-4.5z" fill="#77500c" stroke="none" stroke-width="1" stroke-linecap="butt"/><path d="M320.18473,307.3614c0,3 -2.5,5.5 -5.5,5.5c-3,0 -5.5,-2.4 -5.5,-5.5c0,-0.2 0,-0.2 0,-0.2c0,-0.2 0,-0.3 0,-0.3c0,0 0,0.1 0,0.3c0,0 0,0 0,0.2c0,3 -2.5,5.5 -5.5,5.5c-3,0 -5.5,-2.4 -5.5,-5.5" fill="none" stroke="#000000" stroke-width="2.5" stroke-linecap="round"/><g fill="none" stroke-opacity="0.50196" stroke="#000000" stroke-width="7.5"><path d="M350.18388,279.28793l-16.95522,55.52833" stroke-linecap="round"/><path d="M325.18543,286.37228c0,0 14.46416,-4.50244 23.77275,-2.12358c9.30858,2.37886 19.96562,12.1055 19.96562,12.1055c0,0 -12.01925,-10.07477 -19.96562,-12.1055c-7.70591,-1.96929 -23.77275,2.12358 -23.77275,2.12358z" stroke-linecap="butt"/></g><g stroke-width="7.5"><path d="M352.54924,275.51674l-16.95521,55.52833" fill="none" stroke="#8a5800" stroke-linecap="round"/><path d="M327.55079,282.6011c0,0 14.46416,-4.50244 23.77275,-2.12358c9.30858,2.37886 19.96562,12.1055 19.96562,12.1055c0,0 -12.01925,-10.07476 -19.96562,-12.1055c-7.70591,-1.96929 -23.77275,2.12358 -23.77275,2.12358z" fill="#00cdff" stroke="#00cdff" stroke-linecap="butt"/></g></g><text transform="translate(207.4875,392.9783) scale(0.5,0.5)" font-size="40" xml:space="preserve" fill="#ff7319" fill-rule="nonzero" stroke="none" stroke-width="1" stroke-linecap="butt" stroke-linejoin="miter" stroke-miterlimit="10" stroke-dasharray="" stroke-dashoffset="0" font-family="Sans Serif" font-weight="normal" text-anchor="start" style="mix-blend-mode: normal"><tspan x="0" dy="0">meowermc.myddns.me</tspan></text></g></g></svg>