<svg version="1.1" xmlns="http://www.w3.org/2000/svg" xmlns:xlink="http://www.w3.org/1999/xlink" width="98.71564" height="94.30336" viewBox="0,0,98.71564,94.30336"><g transform="translate(-130.64218,-272.84832)"><g data-paper-data="{&quot;isPaintingLayer&quot;:true}" stroke-linejoin="miter" stroke-miterlimit="10" stroke-dasharray="" stroke-dashoffset="0" style="mix-blend-mode: normal"><path d="M150.44497,276.94725l9.77,4.09753l3.17594,-1.12717c10.42194,-3.69974 23.61429,-3.61878 33.12238,0.20347l2.99359,1.20321l10.07485,-4.22214c5.54011,-2.32334 10.59161,-4.22989 11.22314,-4.23834c1.5327,-0.02042 3.8145,1.83121 4.21229,3.41813c0.30978,1.23489 -0.04154,2.67466 -3.21043,13.14377c-2.84011,9.38418 -2.81617,8.90191 -0.6273,12.82554c5.16908,9.26591 8.07326,20.25318 8.17393,30.92788c0.07251,7.56846 -0.72446,11.24919 -3.47093,16.03315c-5.2261,9.10397 -16.97517,15.45021 -31.77202,17.16244c-6.29977,0.72868 -21.96823,0.72868 -28.27997,-0.00141c-11.22103,-1.29614 -20.40455,-5.14233 -26.88949,-11.25975c-6.12587,-5.77878 -8.32389,-11.58854 -8.29855,-21.93444c0.02675,-10.59654 2.64227,-21.13887 7.55789,-30.46251l2.48175,-4.70653l-1.17645,-4.02078c-0.64702,-2.21069 -1.78898,-6.09912 -2.53737,-8.64001c-2.6296,-8.92656 -2.63312,-8.98287 -0.56675,-11.27805c0.66391,-0.73784 1.73053,-1.22292 2.68733,-1.22292c0.87231,0 5.98295,1.84389 11.3562,4.09893z" fill="#cccccc" fill-rule="evenodd" stroke="#000000" stroke-width="0" stroke-linecap="butt"/><path d="M193.75645,317.72607l2.42331,0.68503c6.14629,2.32615 11.71175,5.96394 16.30985,10.6592l1.23137,1.25742c4.18342,5.27539 6.53351,11.53222 6.61589,17.61021c0.05843,4.31015 -0.58717,6.40608 -2.80984,9.13002c-4.22989,5.18457 -13.73939,8.79772 -25.71515,9.77281c-5.09867,0.41468 -17.78059,0.41468 -22.88842,-0.00071c-9.08215,-0.73854 -16.51543,-2.92811 -21.76407,-6.41172c-4.95787,-3.2907 -6.73699,-6.59899 -6.71586,-12.49042c0.02112,-6.03364 2.13817,-12.03631 6.11672,-17.34549l2.00864,-2.68029c3.95883,-3.93489 8.7069,-6.98621 13.93088,-8.9526l1.87839,-0.70757l2.57046,-0.64209c8.43513,-2.10649 19.11264,-2.06073 26.80783,0.11617z" fill="#feffff" fill-rule="nonzero" stroke="none" stroke-width="1" stroke-linecap="butt"/><path d="M220.71968,287.41368c-2.51343,8.8991 -2.68381,9.29899 -3.44136,8.06621c-1.49539,-2.43388 -9.60666,-10.03331 -12.47844,-11.69203l-2.86615,-1.6545l8.31686,-3.58499c13.81613,-5.95479 14.49272,-5.3824 10.46911,8.8653z" fill="#787878" fill-rule="nonzero" stroke="none" stroke-width="1" stroke-linecap="butt"/><path d="M139.79775,274.88806c1.24757,0 16.70692,6.17657 17.82494,7.12139c0.25979,0.21966 -0.52662,0.90962 -1.74813,1.5327c-2.60073,1.32712 -8.60481,6.79612 -11.58432,10.55359c-1.14759,1.44681 -2.08608,2.48386 -2.08608,2.30363c0,-0.18024 -1.23207,-4.5115 -2.73872,-9.62426c-2.56765,-8.71886 -2.68522,-9.37784 -1.88965,-10.59161c0.52381,-0.79909 1.375,-1.29544 2.22196,-1.29544z" fill="#787878" fill-rule="nonzero" stroke="none" stroke-width="1" stroke-linecap="butt"/><path d="M182.22195,321.37696c1.18508,0 2.37913,0.67306 2.37913,1.85863v0c0,2.24552 -1.82074,4.06577 -4.06627,4.06577c-2.24552,0 -4.06577,-1.82025 -4.06577,-4.06577v0c0,-1.18557 1.19356,-1.85863 2.37914,-1.85863z" fill="#787878" fill-rule="evenodd" stroke="#000000" stroke-width="2.5" stroke-linecap="butt"/><path d="M189.90347,314.47912c-2.40141,0 -4.34814,-1.94672 -4.34814,-4.34814c0,-2.40141 1.94672,-4.34814 4.34814,-4.34814c2.40141,0 4.34814,1.94672 4.34814,4.34814c0,2.40141 -1.94672,4.34814 -4.34814,4.34814z" fill="#000000" fill-rule="nonzero" stroke="none" stroke-width="1" stroke-linecap="butt"/><path d="M165.84452,310.15215c0,-2.40142 1.94673,-4.34814 4.34814,-4.34814c2.40142,0 4.34814,1.94673 4.34814,4.34814c0,2.40142 -1.94673,4.34814 -4.34814,4.34814c-2.40142,0 -4.34814,-1.94673 -4.34814,-4.34814z" fill="#000000" fill-rule="nonzero" stroke="none" stroke-width="1" stroke-linecap="butt"/><path d="M191.60658,330.83458c0,1.59906 -0.71027,3.05606 -1.82794,4.06813c-0.9792,0.88669 -2.27111,1.43187 -3.67205,1.43187c-3,0 -5.5,-2.4 -5.5,-5.5c0,-0.2 0,-3.19198 0,-3.19198c0,-0.2 0,2.69198 0,2.69198c0,0 0,0.1 0,0.3c0,0 0,0 0,0.2c0,3 -2.5,5.5 -5.5,5.5c-3,0 -5.5,-2.4 -5.5,-5.5" fill="none" fill-rule="nonzero" stroke="#000000" stroke-width="3" stroke-linecap="round"/></g></g></svg>