<svg version="1.1" xmlns="http://www.w3.org/2000/svg" xmlns:xlink="http://www.w3.org/1999/xlink" width="170.90338" height="34.6757" viewBox="0,0,170.90338,34.6757"><g transform="translate(-94.54831,-302.66215)"><g data-paper-data="{&quot;isPaintingLayer&quot;:true}" fill-rule="nonzero" stroke-miterlimit="10" stroke-dasharray="" stroke-dashoffset="0" style="mix-blend-mode: normal"><path d="M111.88618,337.33785c-9.57545,0 -17.33787,-7.76242 -17.33787,-17.33785c0,-9.57543 7.76242,-17.33785 17.33787,-17.33785h136.22764c9.57545,0 17.33787,7.76242 17.33787,17.33785c0,9.57543 -7.76242,17.33785 -17.33787,17.33785z" fill="#333333" stroke="none" stroke-width="0" stroke-linecap="round" stroke-linejoin="round"/><text transform="translate(109.84189,323.67428) scale(0.30619,0.30619)" font-size="40" xml:space="preserve" fill="#ffffff" fill-rule="nonzero" stroke="none" stroke-width="1" stroke-linecap="butt" stroke-linejoin="miter" stroke-miterlimit="10" stroke-dasharray="" stroke-dashoffset="0" font-family="Sans Serif" font-weight="normal" text-anchor="start" style="mix-blend-mode: normal"><tspan x="0" dy="0">Failed to            that post. </tspan></text><path d="M193.51093,323.89507c0,6.69611 -6.05498,8.8569 -13.51093,8.8569c-7.45594,0 -13.51093,-2.13706 -13.51093,-8.8569c0,-3.15808 0.90231,-6.74359 2.82566,-9.68798l-1.59092,-5.31889c-0.30869,-1.02103 0.71235,-1.94709 1.66216,-1.54342l5.24765,2.18454c1.54342,-0.68861 3.32431,-1.09228 5.36639,-1.09228c1.99458,0 3.77547,0.40367 5.31889,1.11601l5.29514,-2.20829c0.94979,-0.37992 1.97085,0.54613 1.66216,1.54342l-1.61466,5.39012c1.92334,2.8969 2.8494,6.4824 2.8494,9.61675z" fill="#ff7319" stroke="#ff7319" stroke-width="2.5" stroke-linecap="butt" stroke-linejoin="miter"/></g></g></svg>