<svg version="1.1" xmlns="http://www.w3.org/2000/svg" xmlns:xlink="http://www.w3.org/1999/xlink" width="100.35101" height="100.04222" viewBox="0,0,100.35101,100.04222"><g transform="translate(-269.8245,-129.97889)"><g data-paper-data="{&quot;isPaintingLayer&quot;:true}" stroke-linejoin="miter" stroke-miterlimit="10" stroke-dasharray="" stroke-dashoffset="0" style="mix-blend-mode: normal"><g fill-rule="nonzero" stroke="#d9d9d9" stroke-width="1" stroke-linecap="butt"><path d="M270.42348,204.44129c0,-16.39527 0,-36.45796 0,-45.89072c0,-10.12116 14.87248,-24.01258 25.61343,-24.01258c9.94197,0 30.97395,0 48.02517,0c14.18399,0 25.61343,14.2343 25.61343,24.01259c0,9.08657 0,29.5233 0,45.89072c0,14.84131 -12.45503,25.07981 -23.47897,25.07981c-16.79206,0 -35.89961,0 -46.95795,0c-11.71631,0 -28.8151,-11.23171 -28.8151,-25.07981z" fill="#d9d9d9"/><path d="M270.32451,200.38219c0,-16.39527 0,-36.45797 0,-45.89072c0,-10.12116 14.87248,-24.01258 25.61343,-24.01258c9.94197,0 30.97394,0 48.02517,0c14.18399,0 25.61343,14.2343 25.61343,24.01259c0,9.08657 0,29.5233 0,45.89072c0,14.84131 -12.45503,25.07981 -23.47897,25.07981c-16.79206,0 -35.89961,0 -46.95795,0c-11.71631,0 -28.8151,-11.23171 -28.8151,-25.07981z" fill="#ffffff"/></g><g><path d="M339.93486,209.03907l-6.58986,-2.76378l-2.14217,0.76028c-7.02959,2.49547 -15.92784,2.44087 -22.34104,-0.13724l-2.01918,-0.81156l-6.79548,2.84783c-3.73681,1.56709 -7.14404,2.85306 -7.57001,2.85876c-1.0338,0.01378 -2.57288,-1.23516 -2.84119,-2.30553c-0.20895,-0.83294 0.02802,-1.80406 2.16544,-8.86547c1.91566,-6.32963 1.8995,-6.00433 0.42311,-8.65082c-3.48654,-6.24985 -5.44541,-13.66077 -5.51331,-20.86085c-0.04891,-5.10492 0.48865,-7.58757 2.34114,-10.81435c3.52501,-6.14062 11.44975,-10.42116 21.43022,-11.57606c4.2492,-0.49149 14.81757,-0.4915 19.07483,0.00095c7.56858,0.87424 13.76286,3.4685 18.13696,7.5947c4.1319,3.89779 5.61446,7.81647 5.59737,14.79478c-0.01804,7.14736 -1.78221,14.25816 -5.0978,20.54695l-1.67394,3.17455l0.79352,2.71201c0.43642,1.49111 1.20666,4.11386 1.71146,5.82769c1.77366,6.02096 1.77603,6.05894 0.38227,7.60704c-0.44781,0.49767 -1.16724,0.82486 -1.8126,0.82486c-0.58837,0 -4.0355,-1.2437 -7.65976,-2.76472z" fill="#cccccc" fill-rule="evenodd" stroke="#000000" stroke-width="0" stroke-linecap="butt"/><path d="M310.72128,181.53377l-1.63452,-0.46205c-4.14567,-1.56899 -7.89958,-4.02268 -11.00099,-7.18963l-0.83056,-0.84812c-2.82171,-3.55825 -4.40685,-7.77848 -4.46241,-11.87809c-0.03941,-2.9072 0.39604,-4.3209 1.89523,-6.1582c2.85306,-3.49699 9.26721,-5.93406 17.34486,-6.59176c3.43905,-0.2797 11.993,-0.2797 15.43823,0.00048c6.12591,0.49815 11.13966,1.97501 14.67986,4.3247c3.34408,2.21958 4.5441,4.45102 4.52985,8.42479c-0.01424,4.06969 -1.44219,8.11848 -4.12572,11.69952l-1.35483,1.80786c-2.67023,2.65408 -5.8728,4.7122 -9.39637,6.03853l-1.26697,0.47725l-1.73377,0.43309c-5.68949,1.42083 -12.89147,1.38996 -18.08188,-0.07836z" fill="#feffff" fill-rule="nonzero" stroke="none" stroke-width="1" stroke-linecap="butt"/><path d="M292.53459,201.97947c1.69531,-6.00244 1.81023,-6.27217 2.32119,-5.44065c1.00864,1.64165 6.47969,6.76746 8.4167,7.88627l1.93322,1.11596l-5.60972,2.41807c-9.31898,4.0165 -9.77534,3.63043 -7.06141,-5.97964z" fill="#787878" fill-rule="nonzero" stroke="none" stroke-width="1" stroke-linecap="butt"/><path d="M347.1164,210.428c-0.84148,0 -11.26881,-4.1661 -12.02292,-4.80338c-0.17523,-0.14816 0.35521,-0.61354 1.17912,-1.03381c1.75419,-0.89514 5.80394,-4.58398 7.81362,-7.11839c0.77405,-0.97587 1.40706,-1.67536 1.40706,-1.5538c0,0.12157 0.83103,3.043 1.84726,6.49156c1.73188,5.88087 1.81118,6.32535 1.27457,7.14404c-0.35331,0.53899 -0.92744,0.87377 -1.49872,0.87378z" fill="#787878" fill-rule="nonzero" stroke="none" stroke-width="1" stroke-linecap="butt"/><path d="M318.50129,179.07125c-0.79933,0 -1.60472,-0.45399 -1.60472,-1.25365v0c0,-1.5146 1.22809,-2.74236 2.7427,-2.74236c1.51461,0 2.74237,1.22776 2.74237,2.74236v0c0,0.79967 -0.80506,1.25365 -1.60473,1.25365z" fill="#787878" fill-rule="evenodd" stroke="#000000" stroke-width="2" stroke-linecap="butt"/><path d="M313.32011,183.72384c1.61975,0 2.93282,1.31307 2.93282,2.93282c0,1.61975 -1.31306,2.93281 -2.93282,2.93282c-1.61975,0 -2.93282,-1.31306 -2.93282,-2.93282c0,-1.61975 1.31306,-2.93282 2.93282,-2.93282z" fill="#000000" fill-rule="nonzero" stroke="none" stroke-width="1" stroke-linecap="butt"/><path d="M329.54787,186.64238c0,1.61975 -1.31307,2.93282 -2.93282,2.93282c-1.61975,0 -2.93282,-1.31307 -2.93282,-2.93282c0,-1.61975 1.31307,-2.93282 2.93282,-2.93282c1.61975,0 2.93282,1.31307 2.93282,2.93282z" fill="#000000" fill-rule="nonzero" stroke="none" stroke-width="1" stroke-linecap="butt"/><path d="M312.17136,172.69208c0,-1.07856 0.47908,-2.06131 1.23295,-2.74395c0.66047,-0.59807 1.53186,-0.9658 2.4768,-0.9658c2.0235,0 3.70975,1.6188 3.70975,3.70975c0,0.1349 0,2.15299 0,2.15299c0,0.1349 0,-1.81574 0,-1.81574c0,0 0,-0.06745 0,-0.20235c0,0 0,0 0,-0.1349c0,-2.0235 1.68625,-3.70975 3.70975,-3.70975c2.0235,0 3.70975,1.6188 3.70975,3.70975" fill="none" fill-rule="nonzero" stroke="#000000" stroke-width="2" stroke-linecap="round"/></g></g></g></svg>