<svg version="1.1" xmlns="http://www.w3.org/2000/svg" xmlns:xlink="http://www.w3.org/1999/xlink" width="329.41458" height="87.31684" viewBox="0,0,329.41458,87.31684"><g transform="translate(-15.29271,-276.34158)"><g data-paper-data="{&quot;isPaintingLayer&quot;:true}" stroke-linejoin="miter" stroke-miterlimit="10" stroke-dasharray="" stroke-dashoffset="0" style="mix-blend-mode: normal"><path d="M33.58384,280.1276l9.02418,3.78473l2.93349,-1.04113c9.62635,-3.41731 21.81163,-3.34253 30.59389,0.18794l2.76507,1.11136l9.30576,-3.89983c5.11719,-2.14598 9.78307,-3.90699 10.36639,-3.91479c1.41569,-0.01886 3.52331,1.69142 3.89073,3.1572c0.28613,1.14062 -0.03837,2.47048 -2.96536,12.14041c-2.6233,8.66782 -2.60119,8.22236 -0.57942,11.84647c4.77449,8.55856 7.45696,18.70711 7.54995,28.56692c0.06698,6.99069 -0.66915,10.39045 -3.20596,14.80922c-4.82715,8.409 -15.67933,14.27078 -29.34663,15.8523c-5.81886,0.67306 -20.29123,0.67306 -26.12115,-0.0013c-10.36444,-1.1972 -18.84692,-4.74977 -24.83681,-10.40021c-5.65824,-5.33764 -7.68847,-10.7039 -7.66506,-20.26002c0.02471,-9.78762 2.44056,-19.52519 6.98094,-28.13707l2.2923,-4.34723l-1.08665,-3.71385c-0.59763,-2.04193 -1.65241,-5.63353 -2.34367,-7.98045c-2.42886,-8.24512 -2.43211,-8.29714 -0.52349,-10.41711c0.61323,-0.68151 1.59843,-1.12957 2.48219,-1.12957c0.80572,0 5.52623,1.70313 10.4893,3.78603z" fill="#ff7319" fill-rule="evenodd" stroke="none" stroke-width="1" stroke-linecap="butt"/><path d="M73.32222,317.8286l2.23833,0.63274c5.6771,2.14923 10.81769,5.50867 15.06479,9.8455l1.13737,1.16143c3.86407,4.87333 6.03476,10.65187 6.11084,16.26655c0.05397,3.98047 -0.54235,5.91641 -2.59533,8.43306c-3.90699,4.78814 -12.69056,8.12547 -23.75212,9.02613c-4.70946,0.38368 -16.42326,0.38303 -21.14117,-0.00065c-8.38883,-0.68217 -15.25468,-2.70459 -20.10265,-5.92226c-4.5794,-3.03949 -6.2227,-6.09459 -6.20318,-11.53627c0.01951,-5.5737 1.97495,-11.11814 5.64978,-16.02203v0c1.23491,-1.64786 2.56022,-3.23783 4.13914,-4.56119c3.14809,-2.63826 6.72537,-4.73156 10.58359,-6.18367l1.735,-0.65355l2.37424,-0.59242c7.79122,-1.94634 17.65363,-1.90408 24.76137,0.10665z" fill="#feffff" fill-rule="nonzero" stroke="none" stroke-width="1" stroke-linecap="butt"/><path d="M98.49394,289.91912c-2.32156,8.21976 -2.47893,8.58912 -3.17865,7.45046c-1.38123,-2.24808 -8.87331,-9.26739 -11.52588,-10.79949l-2.64736,-1.5282l7.68196,-3.31132c12.76143,-5.50022 13.38637,-4.97153 9.66993,8.18854z" fill="#77500c" fill-rule="nonzero" stroke="none" stroke-width="1" stroke-linecap="butt"/><path d="M23.7494,278.34969c1.15233,0 15.43156,5.70506 16.46423,6.57776c0.23996,0.20289 -0.48643,0.84019 -1.61469,1.41569c-2.4022,1.22581 -7.94794,6.27732 -10.7,9.74796c-1.05999,1.33636 -1.92683,2.29425 -1.92683,2.12778c0,-0.16647 -1.13802,-4.16711 -2.52965,-8.88957c-2.37163,-8.05328 -2.48024,-8.66196 -1.7454,-9.78307c0.48382,-0.73809 1.26938,-1.19654 2.05234,-1.19654z" fill="#77500c" fill-rule="nonzero" stroke="none" stroke-width="1" stroke-linecap="butt"/><path d="M71.26988,311.27035c0,2.21816 -1.79807,4.01623 -4.01623,4.01623c-2.21816,0 -4.01623,-1.79807 -4.01623,-4.01623c0,-2.21816 1.79807,-4.01623 4.01623,-4.01623c2.21816,0 4.01623,1.79807 4.01623,4.01623z" fill="#000000" fill-rule="nonzero" stroke="none" stroke-width="1" stroke-linecap="butt"/><path d="M88.84157,309.76426c0,2.21816 -1.79807,4.01623 -4.01623,4.01623c-2.21816,0 -4.01623,-1.79807 -4.01623,-4.01623c0,-2.21751 1.79807,-4.01623 4.01623,-4.01623c2.21816,0 4.01623,1.79872 4.01623,4.01623z" fill="#000000" fill-rule="nonzero" stroke="none" stroke-width="1" stroke-linecap="butt"/><path d="M79.80439,328.99269h0.00195c-0.00065,0.01951 -0.0013,0.03966 -0.00195,0.05983v0.2146c0.05723,2.44577 2.05754,4.41097 4.51697,4.41097c0.34531,0 0.68151,-0.03902 1.00471,-0.1125v3.05835c-0.32775,0.04357 -0.66331,0.06633 -1.00341,0.06633c-2.46333,0 -4.65092,-1.18354 -6.02436,-3.01218c-1.37408,1.82864 -3.56168,3.01218 -6.02501,3.01218c-0.34076,0 -0.67566,-0.02276 -1.00406,-0.06633v-3.05835c0.3232,0.07348 0.65941,0.1125 1.00536,0.1125c2.47828,0 4.49096,-1.99642 4.51762,-4.46884v-0.04942v-0.04942c-0.00065,-0.03966 -0.0013,-0.07868 -0.0026,-0.11771h0.0026v-5.52232h3.01218z" fill="#000000" fill-rule="evenodd" stroke="none" stroke-width="1" stroke-linecap="butt"/><path d="M79.92486,321.31949c1.04339,0 2.09468,0.59259 2.09468,1.63641v0c0,1.97705 -1.60305,3.57967 -3.58011,3.57967c-1.97705,0 -3.57967,-1.60262 -3.57967,-3.57967v0c0,-1.04382 1.05086,-1.63641 2.09469,-1.63641z" fill="#77500c" fill-rule="evenodd" stroke="#000000" stroke-width="2.5" stroke-linecap="butt"/><g data-paper-data="{&quot;index&quot;:null}" fill="none" fill-rule="nonzero" stroke="#805702" stroke-width="0.5" stroke-linecap="round"><path d="M161.95277,354.39392l4.2151,3.04144l-3.65116,-1.14647"/><path d="M162.63498,357.37813l4.08872,0.35506l-3.40746,0.59041"/></g><g fill="none" fill-rule="nonzero" stroke="#805702" stroke-width="0.5" stroke-linecap="round"><path d="M155.46741,350.26069l-3.81121,0.34647l4.76401,-2.07884"/><path d="M154.25475,352.07968l-3.20488,-1.29927l4.07107,0.51971"/></g><path d="M124.85123,322.90291c0,-0.71858 0.58201,-1.30059 1.30059,-1.30059h15.60714c0.71858,0 1.30059,0.58201 1.30059,1.30059v18.20833c0,0.71793 -0.58201,1.30059 -1.30059,1.30059h-15.60714c-0.71858,0 -1.30059,-0.58267 -1.30059,-1.30059z" fill="#feffff" fill-rule="nonzero" stroke="none" stroke-width="1" stroke-linecap="butt"/><path d="M138.50748,338.51005h-4.55209h-4.55209c-0.35896,0 -0.6503,-0.29134 -0.6503,-0.6503v-11.70535c0,-0.35896 0.29134,-0.6503 0.6503,-0.6503h9.10416c0.35896,0 0.6503,0.29134 0.6503,0.6503v11.70535c0,0.35896 -0.29134,0.6503 -0.6503,0.6503z" fill="#3a98ed" fill-rule="nonzero" stroke="none" stroke-width="1" stroke-linecap="butt"/><path d="M126.15183,320.30172h15.60714v2.60119h-15.60714zM144.36016,322.90291v18.20833h-2.60119v-18.20833zM141.75897,343.71243h-15.60714v-2.60119h15.60714zM123.55064,341.11124v-18.20833h2.60119v18.20833zM126.15183,343.71243c-1.43651,0 -2.60119,-1.16468 -2.60119,-2.60119h2.60119v0zM144.36016,341.11124c0,1.43651 -1.16468,2.60119 -2.60119,2.60119v-2.60119zM141.75897,320.30172c1.43651,0 2.60119,1.16468 2.60119,2.60119h-2.60119zM126.15183,322.90291h-2.60119c0,-1.43651 1.16468,-2.60119 2.60119,-2.60119zM132.6548,339.53036v-1.02032h2.60119v1.02032zM133.9554,337.20945h4.55209v2.60119h-4.55209zM133.9554,339.81064h-4.55209v-2.60119h4.55209zM127.45242,337.85975v-11.70535h2.60119v11.70535zM137.85718,337.85975v-11.70535h2.60119v11.70535zM138.50748,326.80469h-9.10416v-2.60119h9.10416zM152.23006,352.16629h-6.93932v-2.60119h6.93932zM184.02831,361.06007h-6.24416v-2.60119h6.24416zM177.78415,361.06007c-4.23734,0 -9.45297,-0.89432 -12.18268,-2.16326l0.02391,-2.74685c4.31043,1.60008 7.50848,2.30892 12.15876,2.30892zM127.45242,326.15439c0,-1.07754 0.87335,-1.9509 1.9509,-1.9509v2.60119c0.35896,0 0.6503,-0.29134 0.6503,-0.6503zM129.40331,339.81064c-1.07754,0 -1.9509,-0.87335 -1.9509,-1.9509h2.60119c0,-0.35896 -0.29134,-0.6503 -0.6503,-0.6503zM138.50748,337.20945c-0.35896,0 -0.6503,0.29134 -0.6503,0.6503h2.60119c0,1.07754 -0.87335,1.9509 -1.9509,1.9509zM137.85718,326.15439c0,0.35896 0.29134,0.6503 0.6503,0.6503v-2.60119c1.07754,0 1.9509,0.87335 1.9509,1.9509zM135.25599,339.53036c0,5.54183 4.4929,10.03474 10.03474,10.03474v2.60119c-6.97899,0 -12.63593,-5.65693 -12.63593,-12.63593z" fill="#3897ee" fill-rule="nonzero" stroke="none" stroke-width="1" stroke-linecap="butt"/><g fill-rule="nonzero" stroke="none" stroke-width="1" stroke-linecap="butt"><path d="M197.08976,363.65842c-7.18299,0 -13.00595,0 -13.00595,0v-78.0357c0,0 5.82296,0 13.00595,0h134.61158c7.18299,0 13.00595,0 13.00595,0v78.0357c0,0 -5.82296,0 -13.00595,0z" fill="#444444"/><path d="M194.37999,298.62868c0,-1.43651 1.15298,-2.60119 2.57453,-2.60119h22.13677c1.42155,0 2.57453,1.16468 2.57453,2.60119v52.0238c0,1.43651 -1.15298,2.60119 -2.57453,2.60119h-22.13677c-1.42155,0 -2.57453,-1.16468 -2.57453,-2.60119z" fill="#787878"/><path d="M210.8546,340.2477c0,1.43651 -1.15298,2.60119 -2.57453,2.60119c-1.42155,0 -2.57388,-1.16468 -2.57388,-2.60119c0,-1.43651 1.15233,-2.60119 2.57388,-2.60119c1.42155,0 2.57453,1.16468 2.57453,2.60119z" fill="#161616"/><path d="M231.96197,298.62868c0,-1.43651 1.15233,-2.60119 2.57388,-2.60119h22.13743c1.42155,0 2.57388,1.16468 2.57388,2.60119v52.0238c0,1.43651 -1.15233,2.60119 -2.57388,2.60119h-22.13743c-1.42155,0 -2.57388,-1.16468 -2.57388,-2.60119z" fill="#787878"/><path d="M248.43595,340.2477c0,1.43651 -1.15233,2.60119 -2.57388,2.60119c-1.42155,0 -2.57388,-1.16468 -2.57388,-2.60119c0,-1.43651 1.15233,-2.60119 2.57388,-2.60119c1.42155,0 2.57388,1.16468 2.57388,2.60119z" fill="#161616"/><path d="M307.12531,298.62868c0,-1.43651 1.15298,-2.60119 2.57453,-2.60119h22.13677c1.42155,0 2.57453,1.16468 2.57453,2.60119v52.0238c0,1.43651 -1.15298,2.60119 -2.57453,2.60119h-22.13677c-1.42155,0 -2.57453,-1.16468 -2.57453,-2.60119z" fill="#787878"/><path d="M323.59994,340.2477c0,1.43651 -1.15298,2.60119 -2.57453,2.60119c-1.42155,0 -2.57388,-1.16468 -2.57388,-2.60119c0,-1.43651 1.15233,-2.60119 2.57388,-2.60119c1.42155,0 2.57453,1.16468 2.57453,2.60119z" fill="#161616"/><path d="M269.54398,298.62868c0,-1.43651 1.15233,-2.60119 2.57388,-2.60119h22.13743c1.42155,0 2.57388,1.16468 2.57388,2.60119v52.0238c0,1.43651 -1.15233,2.60119 -2.57388,2.60119h-22.13743c-1.42155,0 -2.57388,-1.16468 -2.57388,-2.60119z" fill="#787878"/><path d="M286.01795,340.2477c0,1.43651 -1.15233,2.60119 -2.57388,2.60119c-1.42155,0 -2.57453,-1.16468 -2.57453,-2.60119c0,-1.43651 1.15298,-2.60119 2.57453,-2.60119c1.42155,0 2.57388,1.16468 2.57388,2.60119z" fill="#161616"/></g></g></g></svg>