<svg version="1.1" xmlns="http://www.w3.org/2000/svg" xmlns:xlink="http://www.w3.org/1999/xlink" width="100.35101" height="100.04222" viewBox="0,0,100.35101,100.04222"><g transform="translate(-269.8245,-129.97889)"><g data-paper-data="{&quot;isPaintingLayer&quot;:true}" stroke-linejoin="miter" stroke-miterlimit="10" stroke-dasharray="" stroke-dashoffset="0" style="mix-blend-mode: normal"><g fill-rule="nonzero" stroke="#d9d9d9" stroke-width="1" stroke-linecap="butt"><path d="M270.42349,204.44129c0,-16.39527 0,-36.45796 0,-45.89072c0,-10.12116 14.87248,-24.01258 25.61343,-24.01258c9.94197,0 30.97395,0 48.02517,0c14.18399,0 25.61343,14.2343 25.61343,24.01259c0,9.08657 0,29.5233 0,45.89072c0,14.84131 -12.45503,25.07981 -23.47897,25.07981c-16.79206,0 -35.89961,0 -46.95795,0c-11.71631,0 -28.8151,-11.23171 -28.8151,-25.07981z" fill="#d9d9d9"/><path d="M270.32451,200.38219c0,-16.39527 0,-36.45797 0,-45.89072c0,-10.12116 14.87248,-24.01258 25.61343,-24.01258c9.94197,0 30.97394,0 48.02517,0c14.18399,0 25.61343,14.2343 25.61343,24.01259c0,9.08657 0,29.5233 0,45.89072c0,14.84131 -12.45503,25.07981 -23.47897,25.07981c-16.79206,0 -35.89961,0 -46.95795,0c-11.71631,0 -28.8151,-11.23171 -28.8151,-25.07981z" fill="#ffffff"/></g><g><path d="M290.96093,199.93486l2.76378,-6.58986l-0.76028,-2.14217c-2.49547,-7.0296 -2.44086,-15.92784 0.13724,-22.34104l0.81157,-2.01917l-2.84783,-6.79548c-1.56709,-3.73681 -2.85306,-7.14404 -2.85876,-7.57001c-0.01378,-1.0338 1.23516,-2.57288 2.30553,-2.84119c0.83294,-0.20895 1.80406,0.02802 8.86547,2.16544c6.32963,1.91566 6.00433,1.8995 8.65082,0.42311c6.24985,-3.48654 13.66077,-5.44541 20.86085,-5.51331c5.10492,-0.04891 7.58757,0.48865 10.81435,2.34114c6.14063,3.525 10.42116,11.44975 11.57606,21.43022c0.49149,4.2492 0.4915,14.81757 -0.00095,19.07483c-0.87424,7.56858 -3.4685,13.76286 -7.5947,18.13696c-3.89779,4.1319 -7.81647,5.61446 -14.79478,5.59737c-7.14737,-0.01804 -14.25816,-1.78221 -20.54696,-5.0978l-3.17455,-1.67394l-2.71201,0.79352c-1.49111,0.43641 -4.11386,1.20666 -5.82769,1.71146c-6.02096,1.77366 -6.05894,1.77603 -7.60704,0.38227c-0.49767,-0.44781 -0.82486,-1.16724 -0.82486,-1.8126c0,-0.58837 1.2437,-4.0355 2.76472,-7.65975z" fill="#cccccc" fill-rule="evenodd" stroke="#000000" stroke-width="0" stroke-linecap="butt"/><path d="M318.46623,170.72128l0.46205,-1.63452c1.56899,-4.14567 4.02268,-7.89958 7.18963,-11.00099l0.84812,-0.83056c3.55825,-2.82171 7.77848,-4.40685 11.87809,-4.46241c2.9072,-0.03941 4.3209,0.39605 6.1582,1.89523c3.49699,2.85306 5.93406,9.26721 6.59176,17.34486c0.2797,3.43905 0.2797,11.99301 -0.00048,15.43823c-0.49815,6.12591 -1.97501,11.13966 -4.3247,14.67986c-2.21958,3.34408 -4.45102,4.5441 -8.42479,4.52985c-4.06969,-0.01424 -8.11848,-1.44219 -11.69952,-4.12572l-1.80786,-1.35483c-2.65408,-2.67023 -4.7122,-5.8728 -6.03853,-9.39637l-0.47725,-1.26697l-0.43309,-1.73377c-1.42083,-5.68949 -1.38996,-12.89147 0.07836,-18.08188z" fill="#feffff" fill-rule="nonzero" stroke="none" stroke-width="1" stroke-linecap="butt"/><path d="M298.02053,152.53459c6.00244,1.69531 6.27217,1.81023 5.44065,2.32119c-1.64165,1.00864 -6.76746,6.47969 -7.88627,8.41671l-1.11596,1.93322l-2.41807,-5.60972c-4.0165,-9.31898 -3.63043,-9.77534 5.97965,-7.06141z" fill="#787878" fill-rule="nonzero" stroke="none" stroke-width="1" stroke-linecap="butt"/><path d="M289.572,207.1164c0,-0.84148 4.1661,-11.26881 4.80338,-12.02292c0.14816,-0.17523 0.61354,0.35521 1.0338,1.17912c0.89514,1.75419 4.58398,5.80394 7.11839,7.81362c0.97587,0.77405 1.67536,1.40706 1.5538,1.40706c-0.12157,0 -3.043,0.83103 -6.49156,1.84727c-5.88087,1.73188 -6.32535,1.81118 -7.14404,1.27457c-0.53899,-0.35331 -0.87378,-0.92744 -0.87378,-1.49872z" fill="#787878" fill-rule="nonzero" stroke="none" stroke-width="1" stroke-linecap="butt"/><path d="M320.92875,178.50129c0,-0.79933 0.45399,-1.60472 1.25365,-1.60472v0c1.5146,0 2.74236,1.22809 2.74236,2.7427c0,1.51461 -1.22776,2.74236 -2.74236,2.74236v0c-0.79967,0 -1.25365,-0.80506 -1.25365,-1.60473z" fill="#787878" fill-rule="evenodd" stroke="#000000" stroke-width="2" stroke-linecap="butt"/><path d="M316.27616,173.32011c0,1.61975 -1.31306,2.93282 -2.93282,2.93282c-1.61975,0 -2.93282,-1.31306 -2.93282,-2.93282c0,-1.61975 1.31306,-2.93282 2.93282,-2.93282c1.61975,0 2.93282,1.31306 2.93282,2.93282z" fill="#000000" fill-rule="nonzero" stroke="none" stroke-width="1" stroke-linecap="butt"/><path d="M313.35762,189.54787c-1.61975,0 -2.93282,-1.31307 -2.93282,-2.93282c0,-1.61976 1.31307,-2.93282 2.93282,-2.93282c1.61975,0 2.93282,1.31307 2.93282,2.93282c0,1.61975 -1.31307,2.93282 -2.93282,2.93282z" fill="#000000" fill-rule="nonzero" stroke="none" stroke-width="1" stroke-linecap="butt"/><path d="M327.30792,172.17136c1.07856,0 2.06131,0.47908 2.74395,1.23295c0.59807,0.66047 0.9658,1.53187 0.9658,2.4768c0,2.0235 -1.6188,3.70975 -3.70975,3.70975c-0.1349,0 -2.15299,0 -2.15299,0c-0.1349,0 1.81574,0 1.81574,0c0,0 0.06745,0 0.20235,0c0,0 0,0 0.1349,0c2.0235,0 3.70975,1.68625 3.70975,3.70975c0,2.0235 -1.6188,3.70975 -3.70975,3.70975" fill="none" fill-rule="nonzero" stroke="#000000" stroke-width="2" stroke-linecap="round"/></g></g></g></svg>