<svg version="1.1" xmlns="http://www.w3.org/2000/svg" xmlns:xlink="http://www.w3.org/1999/xlink" width="31.5962" height="31.5962" viewBox="0,0,31.5962,31.5962"><g transform="translate(-164.2019,-304.2019)"><g data-paper-data="{&quot;isPaintingLayer&quot;:true}" fill-rule="nonzero" stroke-linejoin="miter" stroke-miterlimit="10" stroke-dasharray="" stroke-dashoffset="0" style="mix-blend-mode: normal"><path d="M164.4519,335.5481v-31.0962h31.0962v31.0962z" fill-opacity="0.00392" fill="#ffffff" stroke-opacity="0.00392" stroke="#ffffff" stroke-width="0.5" stroke-linecap="butt"/><path d="M179.13046,323.77012c0,-0.34781 0.3826,-0.46955 0.86954,-0.46955c0.48694,0 0.86954,0.10434 0.86954,0.46955c0,0.3652 -0.27825,0.78258 -0.86954,0.78258c-0.59128,0 -0.86954,-0.43477 -0.86954,-0.78258z" fill="#ff0000" stroke="#ff0000" stroke-width="0.5" stroke-linecap="butt"/><path d="M182.48686,324.744c0,0.67824 -0.57389,1.25213 -1.25213,1.25213c-0.67824,0 -1.25213,-0.53911 -1.25213,-1.25213c0,-0.05217 0,-0.05217 0,-0.05217c0,-0.05217 0,-0.06956 0,-0.06956c0,0 0,0.01739 0,0.06956c0,0 0,0 0,0.05217c0,0.67824 -0.57389,1.25213 -1.25213,1.25213c-0.67824,0 -1.25213,-0.53911 -1.25213,-1.25213" fill="none" stroke="#ff0000" stroke-width="1" stroke-linecap="round"/><path d="M177.77397,321.47454c0,-0.46955 0.3826,-0.85214 0.85214,-0.85214c0.46955,0 0.85214,0.3826 0.85214,0.85214c0,0.46955 -0.3826,0.85214 -0.85214,0.85214c-0.46955,0 -0.85214,-0.3826 -0.85214,-0.85214z" fill="#ff0000" stroke="#ff0000" stroke-width="0" stroke-linecap="butt"/><path d="M180.5391,321.47454c0,-0.46955 0.3826,-0.85214 0.85214,-0.85214c0.46955,0 0.85214,0.3826 0.85214,0.85214c0,0.46955 -0.3826,0.85214 -0.85214,0.85214c-0.46955,0 -0.85214,-0.3826 -0.85214,-0.85214z" fill="#ff0000" stroke="#ff0000" stroke-width="0" stroke-linecap="butt"/><path d="M170.15685,328.53517v0.69563v-19.12979h0.76519l9.04317,8.12147h0.06956l9.04317,-8.12147h0.76519v19.12979v-0.69563" fill="none" stroke="#ff0000" stroke-width="2.5" stroke-linecap="round"/></g></g></svg>