<svg version="1.1" xmlns="http://www.w3.org/2000/svg" xmlns:xlink="http://www.w3.org/1999/xlink" width="31.5962" height="31.5962" viewBox="0,0,31.5962,31.5962"><g transform="translate(-164.2019,-304.2019)"><g data-paper-data="{&quot;isPaintingLayer&quot;:true}" fill-rule="nonzero" stroke-miterlimit="10" stroke-dasharray="" stroke-dashoffset="0" style="mix-blend-mode: normal"><path d="M164.4519,335.5481v-31.0962h31.0962v31.0962z" fill-opacity="0.00392" fill="#ffffff" stroke-opacity="0.00392" stroke="#ffffff" stroke-width="0.5" stroke-linecap="butt" stroke-linejoin="miter"/><path d="M175.33334,328.16666c-4.51033,0 -8.16667,-3.65634 -8.16667,-8.16666v0c0,-4.51032 3.65634,-8.16666 8.16667,-8.16666h9.33333c4.51033,0 8.16667,3.65634 8.16667,8.16666v0c0,4.51032 -3.65634,8.16666 -8.16667,8.16666z" fill="#0e8000" stroke="#ffffff" stroke-width="2" stroke-linecap="round" stroke-linejoin="round"/><path d="M181.16669,319.99997c0,-1.933 1.567,-3.5 3.5,-3.5c1.933,0 3.5,1.567 3.5,3.5c0,1.933 -1.567,3.5 -3.5,3.5c-1.933,0 -3.5,-1.567 -3.5,-3.5z" fill="#ffffff" stroke="#ffffff" stroke-width="2" stroke-linecap="round" stroke-linejoin="round"/></g></g></svg>