<svg version="1.1" xmlns="http://www.w3.org/2000/svg" xmlns:xlink="http://www.w3.org/1999/xlink" width="193.32892" height="116.51954" viewBox="0,0,193.32892,116.51954"><g transform="translate(-83.44062,-250.65116)"><g data-paper-data="{&quot;isPaintingLayer&quot;:true}" stroke-linejoin="miter" stroke-miterlimit="10" stroke-dasharray="" stroke-dashoffset="0" style="mix-blend-mode: normal"><g fill="#000000" fill-rule="nonzero" stroke="none" stroke-width="1" stroke-linecap="butt"><path d="M206.86953,363.4081c-2,0 -3.8,-0.2 -5.3,-0.4c-2.8,-0.5 -2.7,-4.4 0.2,-4.9c1.5,-0.3 3.3,-0.4 5.2,-0.4c5.5,0 10,1.3 10,2.9c0,1.6 -4.5,2.8 -10.1,2.8z"/><path d="M192.96953,363.9081c-1.3,0 -2.4,-0.2 -3.4,-0.4c-1.8,-0.5 -1.7,-4.4 0.1,-4.9c1,-0.3 2.1,-0.4 3.3,-0.4c1.2,0 2.4,0.2 3.3,0.4c1.8,0.5 1.8,4.5 -0.2,5c-0.8,0.1 -1.9,0.3 -3.1,0.3z"/><path d="M221.36953,354.1081c-2,0 -3.8,-0.2 -5.3,-0.4c-2.8,-0.5 -2.7,-4.4 0.2,-4.9c1.5,-0.3 3.3,-0.4 5.2,-0.4c5.5,0 10,1.3 10,2.9c0,1.6 -4.5,2.8 -10.1,2.8z"/><path d="M207.46953,354.6081c-1.3,0 -2.4,-0.2 -3.4,-0.4c-1.8,-0.5 -1.7,-4.4 0.1,-4.9c1,-0.3 2.1,-0.4 3.3,-0.4c1.2,0 2.4,0.2 3.3,0.4c1.8,0.5 1.8,4.5 -0.2,5c-0.8,0.2 -1.9,0.3 -3.1,0.3z"/><path d="M252.16953,363.4081c-2,0 -3.8,-0.2 -5.3,-0.4c-2.8,-0.5 -2.7,-4.4 0.2,-4.9c1.5,-0.3 3.3,-0.4 5.2,-0.4c5.5,0 10,1.3 10,2.9c0,1.6 -4.6,2.8 -10.1,2.8z"/><path d="M238.26953,363.9081c-1.3,0 -2.4,-0.2 -3.4,-0.4c-1.8,-0.5 -1.7,-4.4 0.1,-4.9c1,-0.3 2.1,-0.4 3.3,-0.4c1.2,0 2.4,0.2 3.3,0.4c1.8,0.5 1.8,4.5 -0.2,5c-0.9,0.1 -1.9,0.3 -3.1,0.3z"/><path d="M266.66953,354.1081c-2,0 -3.8,-0.2 -5.3,-0.4c-2.8,-0.5 -2.7,-4.4 0.2,-4.9c1.5,-0.3 3.3,-0.4 5.2,-0.4c5.5,0 10,1.3 10,2.9c0,1.6 -4.6,2.8 -10.1,2.8z"/><path d="M252.76953,354.6081c-1.3,0 -2.4,-0.2 -3.4,-0.4c-1.8,-0.5 -1.7,-4.4 0.1,-4.9c1,-0.3 2.1,-0.4 3.3,-0.4c1.2,0 2.4,0.2 3.3,0.4c1.8,0.5 1.8,4.5 -0.2,5c-0.9,0.2 -1.9,0.3 -3.1,0.3z"/></g><path d="M103.2434,277.06257l9.77,4.09753l3.17594,-1.12717c10.42194,-3.69974 23.61429,-3.61878 33.12238,0.20347l2.99359,1.20321l10.07485,-4.22214c5.54011,-2.32334 10.59161,-4.22989 11.22314,-4.23834c1.5327,-0.02042 3.8145,1.83121 4.21229,3.41813c0.30978,1.23489 -0.04154,2.67466 -3.21043,13.14377c-2.84011,9.38418 -2.81617,8.90191 -0.6273,12.82554c5.16908,9.26591 8.07326,20.25318 8.17393,30.92788c0.07251,7.56846 -0.72446,11.24919 -3.47093,16.03315c-5.2261,9.10397 -16.97517,15.45021 -31.77202,17.16244c-6.29977,0.72868 -21.96823,0.72868 -28.27997,-0.00141c-11.22103,-1.29614 -20.40455,-5.14233 -26.88949,-11.25975c-6.12587,-5.77878 -8.32389,-11.58854 -8.29855,-21.93444c0.02675,-10.59654 2.64227,-21.13887 7.55789,-30.46251l2.48175,-4.70653l-1.17645,-4.02078c-0.64702,-2.21069 -1.78898,-6.09912 -2.53737,-8.64001c-2.6296,-8.92656 -2.63312,-8.98287 -0.56675,-11.27805c0.66391,-0.73784 1.73053,-1.22292 2.68733,-1.22292c0.87231,0 5.98295,1.84389 11.3562,4.09893z" fill="#ff7319" fill-rule="evenodd" stroke="none" stroke-width="1" stroke-linecap="butt"/><path d="M146.26602,317.74509l2.42331,0.68503c6.14629,2.32615 11.71175,5.96394 16.30985,10.6592l1.23137,1.25742c4.18342,5.27539 6.53351,11.53222 6.61589,17.61021c0.05843,4.31015 -0.58717,6.40608 -2.80984,9.13002c-4.22989,5.18457 -13.73939,8.79772 -25.71515,9.77281c-5.09867,0.41468 -17.78059,0.41468 -22.88842,-0.00071c-9.08215,-0.73854 -16.51543,-2.92811 -21.76407,-6.41172c-4.95787,-3.2907 -6.73699,-6.59899 -6.71586,-12.49042c0.02112,-6.03364 2.13817,-12.03631 6.11672,-17.34549l2.00864,-2.68029c3.95883,-3.93489 8.7069,-6.98621 13.93088,-8.9526l1.87839,-0.70757l2.57046,-0.64209c8.43513,-2.10649 19.11264,-2.06073 26.80783,0.11617z" fill="#feffff" fill-rule="nonzero" stroke="none" stroke-width="1" stroke-linecap="butt"/><path d="M173.5181,287.52899c-2.51343,8.8991 -2.68381,9.29899 -3.44136,8.06621c-1.49539,-2.43388 -9.60666,-10.03331 -12.47844,-11.69203l-2.86615,-1.6545l8.31686,-3.58499c13.81613,-5.95479 14.49272,-5.3824 10.46911,8.8653z" fill="#77500c" fill-rule="nonzero" stroke="none" stroke-width="1" stroke-linecap="butt"/><path d="M92.59617,275.00337c1.24757,0 16.70692,6.17657 17.82494,7.12139c0.25979,0.21966 -0.52662,0.90962 -1.74813,1.5327c-2.60073,1.32712 -8.60481,6.79612 -11.58432,10.55359c-1.14759,1.44681 -2.08608,2.48386 -2.08608,2.30363c0,-0.18024 -1.23207,-4.5115 -2.73872,-9.62426c-2.56765,-8.71886 -2.68522,-9.37784 -1.88965,-10.59161c0.52381,-0.79909 1.375,-1.29544 2.22196,-1.29544z" fill="#77500c" fill-rule="nonzero" stroke="none" stroke-width="1" stroke-linecap="butt"/><path d="M153.61492,330.55083h0.00222c-0.00074,0.02216 -0.00148,0.04505 -0.00222,0.06795v0.24374c0.065,2.77789 2.33695,5.00996 5.13035,5.00996c0.3922,0 0.77406,-0.04432 1.14114,-0.12778v3.47366c-0.37226,0.04949 -0.75338,0.07534 -1.13967,0.07534c-2.79784,0 -5.2825,-1.34426 -6.84244,-3.42122c-1.56067,2.07696 -4.04534,3.42122 -6.84318,3.42122c-0.38703,0 -0.76741,-0.02585 -1.14041,-0.07534v-3.47366c0.36709,0.08346 0.74895,0.12778 1.14188,0.12778c2.81482,0 5.10081,-2.26752 5.13109,-5.07569v-0.05613v-0.05613c-0.00074,-0.04505 -0.00148,-0.08937 -0.00295,-0.13369h0.00295v-6.27223h3.42122z" fill="#000000" fill-rule="evenodd" stroke="none" stroke-width="1" stroke-linecap="butt"/><path d="M153.75175,321.83564c1.18508,0 2.37913,0.67306 2.37913,1.85863v0c0,2.24552 -1.82074,4.06577 -4.06627,4.06577c-2.24552,0 -4.06577,-1.82025 -4.06577,-4.06577v0c0,-1.18557 1.19356,-1.85863 2.37914,-1.85863z" fill="#77500c" fill-rule="evenodd" stroke="#000000" stroke-width="2.5" stroke-linecap="butt"/><path d="M136.86791,313.06246c0,-2.40142 1.94673,-4.34814 4.34814,-4.34814c2.40142,0 4.34814,1.94673 4.34814,4.34814c0,2.40142 -1.94673,4.34814 -4.34814,4.34814c-2.40142,0 -4.34814,-1.94673 -4.34814,-4.34814z" data-paper-data="{&quot;index&quot;:null}" fill="#000000" fill-rule="nonzero" stroke="none" stroke-width="1" stroke-linecap="butt"/><path d="M160.92686,317.43177c-2.40141,0 -4.34814,-1.94672 -4.34814,-4.34814c0,-2.40141 1.94672,-4.34814 4.34814,-4.34814c2.40141,0 4.34814,1.94672 4.34814,4.34814c0,2.40141 -1.94672,4.34814 -4.34814,4.34814z" data-paper-data="{&quot;index&quot;:null}" fill="#000000" fill-rule="nonzero" stroke="none" stroke-width="1" stroke-linecap="butt"/><path d="M153.48286,283.81231c4.11577,-0.70731 23.15572,-2.89846 29.04547,-3.10895c3.81754,-0.20567 10.64974,-0.75828 10.65348,3.21349c0.0515,5.13457 -26.79175,7.52276 -26.79175,7.52276c0,0 -12.99899,-5.98113 -12.9072,-7.62731z" fill="#305959" fill-rule="evenodd" stroke="none" stroke-width="1" stroke-linecap="butt"/><path d="M115.07962,291.0311c0,0 -6.57793,1.17556 -9.5503,1.84142c-3.06135,0.68579 -8.55873,2.2153 -8.55873,2.2153c-4.64657,-16.57197 4.89326,-38.60614 30.61256,-42.46846z" fill="#68a19a" fill-rule="evenodd" stroke="none" stroke-width="1" stroke-linecap="butt"/><path d="M166.54872,291.55584c0,0 -9.28057,-2.81805 -25.25269,-2.79875c-16.94718,0.02048 -26.21641,2.27401 -26.21641,2.27401c0,0 -6.59998,-24.11559 12.50353,-38.41174c27.59629,2.56977 40.24323,20.4216 38.96557,38.93648z" fill="#508276" fill-rule="evenodd" stroke="none" stroke-width="1" stroke-linecap="butt"/><path d="M130.95336,252.94603c0.07642,1.11154 -1.33247,1.4876 -3.07779,1.6076c-1.74533,0.12 -3.19243,-0.0597 -3.26885,-1.17124c-0.07642,-1.11154 0.78004,-2.56641 3.00137,-2.71914c2.22133,-0.15273 3.26885,1.17124 3.34528,2.28277z" fill="#281446" fill-rule="nonzero" stroke="none" stroke-width="1" stroke-linecap="butt"/><g fill-rule="nonzero" stroke-width="3.5"><path d="M185.90651,319.60215l-12.4,12.4" fill="none" stroke="#7b7b7b" stroke-linecap="round"/><path d="M183.50651,313.30215c0,-4.5 3.6,-8.1 8.1,-8.1c4.5,0 8.1,3.6 8.1,8.1c0,4.5 -3.6,8.1 -8.1,8.1c-4.5,0 -8.1,-3.6 -8.1,-8.1z" fill="#ffffff" stroke="none" stroke-linecap="butt" opacity="0.5"/><path d="M183.50651,313.30215c0,-4.5 3.6,-8.1 8.1,-8.1c4.5,0 8.1,3.6 8.1,8.1c0,4.5 -3.6,8.1 -8.1,8.1c-4.5,0 -8.1,-3.6 -8.1,-8.1z" fill="none" stroke="#7b7b7b" stroke-linecap="butt"/></g><path d="M144.85576,310.13123h-13.25867" fill="none" fill-rule="nonzero" stroke="#000000" stroke-width="3.5" stroke-linecap="round"/><path d="M162.56294,301.10338c-0.00221,0.06268 -0.00295,0.12609 -0.00295,0.18951c0,2.82942 2.29406,5.12348 5.12348,5.12348c0.10397,0 0.20794,-0.00295 0.31118,-0.00885v3.41934c-0.10324,0.00369 -0.20647,0.00516 -0.30971,0.00516c-4.71643,0 -8.53913,-3.8227 -8.53913,-8.53913c0,-0.06341 0.00074,-0.12683 0.00221,-0.18951z" data-paper-data="{&quot;index&quot;:null}" fill="#000000" fill-rule="evenodd" stroke="none" stroke-width="1" stroke-linecap="butt"/></g></g></svg>