<svg version="1.1" xmlns="http://www.w3.org/2000/svg" xmlns:xlink="http://www.w3.org/1999/xlink" width="119.95362" height="94.3414" viewBox="0,0,119.95362,94.3414"><g transform="translate(-130.64219,-272.8293)"><g data-paper-data="{&quot;isPaintingLayer&quot;:true}" stroke-linejoin="miter" stroke-miterlimit="10" stroke-dasharray="" stroke-dashoffset="0" style="mix-blend-mode: normal"><path d="M150.44497,276.92823l9.77,4.09753l3.17594,-1.12717c10.42194,-3.69974 23.61429,-3.61878 33.12238,0.20347l2.99359,1.20321l10.07485,-4.22214c5.54011,-2.32334 10.59161,-4.22989 11.22314,-4.23834c1.5327,-0.02042 3.8145,1.83121 4.21229,3.41813c0.30978,1.23489 -0.04154,2.67466 -3.21043,13.14377c-2.84011,9.38418 -2.81617,8.90191 -0.6273,12.82554c5.16908,9.26591 8.07326,20.25318 8.17393,30.92788c0.07251,7.56846 -0.72446,11.24919 -3.47093,16.03315c-5.2261,9.10397 -16.97517,15.45021 -31.77202,17.16244c-6.29977,0.72868 -21.96823,0.72868 -28.27997,-0.00141c-11.22103,-1.29614 -20.40455,-5.14233 -26.88949,-11.25975c-6.12587,-5.77878 -8.32389,-11.58854 -8.29855,-21.93444c0.02675,-10.59654 2.64227,-21.13887 7.55789,-30.46251l2.48175,-4.70653l-1.17645,-4.02078c-0.64702,-2.21069 -1.78898,-6.09912 -2.53737,-8.64001c-2.6296,-8.92656 -2.63312,-8.98287 -0.56675,-11.27805c0.66391,-0.73784 1.73053,-1.22292 2.68733,-1.22292c0.87231,0 5.98295,1.84389 11.3562,4.09893z" fill="#ff7319" fill-rule="evenodd" stroke="none" stroke-width="1" stroke-linecap="butt"/><path d="M193.46759,317.74509l2.42331,0.68503c6.14629,2.32615 11.71175,5.96394 16.30985,10.6592l1.23137,1.25742c4.18342,5.27539 6.53351,11.53222 6.61589,17.61021c0.05843,4.31015 -0.58717,6.40608 -2.80984,9.13002c-4.22989,5.18457 -13.73939,8.79772 -25.71515,9.77281c-5.09867,0.41468 -17.78059,0.41468 -22.88842,-0.00071c-9.08215,-0.73854 -16.51543,-2.92811 -21.76407,-6.41172c-4.95787,-3.2907 -6.73699,-6.59899 -6.71586,-12.49042c0.02112,-6.03364 2.13817,-12.03631 6.11672,-17.34549l2.00864,-2.68029c3.95883,-3.93489 8.7069,-6.98621 13.93088,-8.9526l1.87839,-0.70757l2.57046,-0.64209c8.43513,-2.10649 19.11264,-2.06073 26.80783,0.11617z" fill="#feffff" fill-rule="nonzero" stroke="none" stroke-width="1" stroke-linecap="butt"/><path d="M220.71967,287.52899c-2.51343,8.8991 -2.68381,9.29899 -3.44136,8.06621c-1.49539,-2.43388 -9.60666,-10.03331 -12.47844,-11.69203l-2.86615,-1.6545l8.31686,-3.58499c13.81613,-5.95479 14.49272,-5.3824 10.46911,8.8653z" fill="#77500c" fill-rule="nonzero" stroke="none" stroke-width="1" stroke-linecap="butt"/><path d="M139.79774,275.00337c1.24757,0 16.70692,6.17657 17.82494,7.12139c0.25979,0.21966 -0.52662,0.90962 -1.74813,1.5327c-2.60073,1.32712 -8.60481,6.79612 -11.58432,10.55359c-1.14759,1.44681 -2.08608,2.48386 -2.08608,2.30363c0,-0.18024 -1.23207,-4.5115 -2.73872,-9.62426c-2.56765,-8.71886 -2.68522,-9.37784 -1.88965,-10.59161c0.52381,-0.79909 1.375,-1.29544 2.22196,-1.29544z" fill="#77500c" fill-rule="nonzero" stroke="none" stroke-width="1" stroke-linecap="butt"/><path d="M182.08511,330.20745h0.00222c-0.00074,0.02216 -0.00148,0.04505 -0.00222,0.06795v0.24374c0.065,2.77789 2.33695,5.00996 5.13035,5.00996c0.3922,0 0.77406,-0.04432 1.14114,-0.12778v3.47366c-0.37226,0.04949 -0.75338,0.07534 -1.13967,0.07534c-2.79784,0 -5.2825,-1.34426 -6.84244,-3.42122c-1.56067,2.07696 -4.04534,3.42122 -6.84318,3.42122c-0.38703,0 -0.76741,-0.02585 -1.14041,-0.07534v-3.47366c0.36709,0.08346 0.74895,0.12778 1.14188,0.12778c2.81482,0 5.10081,-2.26752 5.13109,-5.07569v-0.05613v-0.05613c-0.00074,-0.04505 -0.00148,-0.08937 -0.00295,-0.13369h0.00295v-6.27223h3.42122z" fill="#000000" fill-rule="evenodd" stroke="none" stroke-width="1" stroke-linecap="butt"/><path d="M182.22194,321.49226c1.18508,0 2.37913,0.67306 2.37913,1.85863v0c0,2.24552 -1.82074,4.06577 -4.06627,4.06577c-2.24552,0 -4.06577,-1.82025 -4.06577,-4.06577v0c0,-1.18557 1.19356,-1.85863 2.37914,-1.85863z" fill="#77500c" fill-rule="evenodd" stroke="#000000" stroke-width="2.5" stroke-linecap="butt"/><path d="M189.90346,314.59442c-2.40141,0 -4.34814,-1.94672 -4.34814,-4.34814c0,-2.40141 1.94672,-4.34814 4.34814,-4.34814c2.40141,0 4.34814,1.94672 4.34814,4.34814c0,2.40141 -1.94672,4.34814 -4.34814,4.34814z" fill="#000000" fill-rule="nonzero" stroke="none" stroke-width="1" stroke-linecap="butt"/><path d="M165.84451,310.26745c0,-2.40142 1.94673,-4.34814 4.34814,-4.34814c2.40142,0 4.34814,1.94673 4.34814,4.34814c0,2.40142 -1.94673,4.34814 -4.34814,4.34814c-2.40142,0 -4.34814,-1.94673 -4.34814,-4.34814z" fill="#000000" fill-rule="nonzero" stroke="none" stroke-width="1" stroke-linecap="butt"/><path d="M225.12989,343.96418c-0.67301,0.4155 -1.56725,0.18774 -1.99727,-0.50879l-6.69658,-10.84697c-0.43002,-0.69653 -0.23294,-1.59803 0.44007,-2.01352l24.37332,-15.04732c0.67301,-0.4155 1.56725,-0.18774 1.99727,0.50879l6.69658,10.84697c0.43002,0.69653 0.23294,1.59803 -0.44007,2.01352z" fill="#d0d0d0" fill-rule="nonzero" stroke="#949494" stroke-width="1.5" stroke-linecap="butt"/><path d="M216.58138,332.18846c-0.42504,-0.68847 -0.23543,-1.57633 0.42339,-1.98306l23.85948,-14.73009c0.65882,-0.40674 1.53752,-0.17842 1.96256,0.51005l-9.17799,14.62466z" fill="#d0d0d0" fill-rule="nonzero" stroke="#949494" stroke-width="1" stroke-linecap="butt"/><g fill-rule="nonzero"><path d="M236.80952,329.36541c0.07032,0.86394 0.31356,1.90318 -0.11778,2.59084c-0.6152,0.98078 -3.51232,1.96887 -4.7372,2.09496c-2.08372,0.2145 -2.52023,-1.81286 -2.69084,-3.909c-0.06121,-0.75209 -0.38967,-1.6937 -0.06255,-2.32207c0.58459,-1.12293 2.19046,-1.72419 3.52654,-1.86173c1.45906,-0.1502 3.29498,0.09054 4.0219,1.2451c0.31122,0.4943 0.00877,1.5335 0.05991,2.16188z" fill="#f14141" stroke="none" stroke-width="1" stroke-linecap="butt"/><path d="M236.67413,329.37524c0.16328,2.00615 -1.32103,3.79889 -3.31529,4.00418c-0.65117,0.06704 -1.27619,-0.04347 -1.8284,-0.29254c-1.13899,-0.51375 -1.96822,-1.61707 -2.07819,-2.96817c-0.16328,-2.00615 1.32103,-3.79889 3.31529,-4.00418c1.99427,-0.2053 3.74331,1.25458 3.90657,3.26072z" fill="#f14141" stroke="#8e2626" stroke-width="0.125" stroke-linecap="butt"/><path d="M236.03446,329.43529c0.13484,1.65666 -1.09088,3.13708 -2.73774,3.30662c-0.53773,0.05536 -1.05386,-0.03589 -1.50988,-0.24158c-0.94056,-0.42425 -1.62534,-1.33537 -1.71615,-2.45109c-0.13484,-1.65666 1.09088,-3.13708 2.73774,-3.30662c1.64684,-0.16952 3.09119,1.03601 3.22602,2.69268z" fill="#f14141" stroke="#8e2626" stroke-width="0.125" stroke-linecap="butt"/><g stroke="#8e2626" stroke-width="0.125"><path d="M233.39709,330.57787c-0.03281,-0.0475 0.00796,-0.10021 0.07444,-0.14614c0.06648,-0.04593 0.12857,-0.06778 0.16302,-0.0179c0.03444,0.04986 0.03583,0.13309 -0.04491,0.18887c-0.08074,0.05577 -0.15974,0.02266 -0.19255,-0.02484z" fill="#8e2626" stroke-linecap="butt"/><path d="M233.94723,330.39426c0.06397,0.0926 0.03975,0.22509 -0.05287,0.28907c-0.0926,0.06397 -0.22182,0.04449 -0.28907,-0.05287c-0.00493,-0.00712 -0.00493,-0.00712 -0.00493,-0.00712c-0.00493,-0.00712 -0.00656,-0.0095 -0.00656,-0.0095c0,0 0.00165,0.00238 0.00656,0.0095c0,0 0,0 0.00493,0.00712c0.06397,0.0926 0.03975,0.22509 -0.05287,0.28907c-0.0926,0.06397 -0.22182,0.04449 -0.28907,-0.05287" fill="none" stroke-linecap="round"/><path d="M232.99534,330.39239c-0.0443,-0.06412 -0.02813,-0.15245 0.03597,-0.19673c0.06412,-0.0443 0.15245,-0.02813 0.19673,0.03597c0.0443,0.06412 0.02813,0.15245 -0.03597,0.19673c-0.06412,0.0443 -0.15245,0.02813 -0.19673,-0.03597z" fill="#8e2626" stroke-linecap="butt"/><path d="M233.37289,330.13157c-0.0443,-0.06412 -0.02813,-0.15245 0.03597,-0.19673c0.06412,-0.0443 0.15245,-0.02813 0.19673,0.03597c0.0443,0.06412 0.02813,0.15245 -0.03597,0.19673c-0.06412,0.0443 -0.15245,0.02813 -0.19673,-0.03597z" fill="#8e2626" stroke-linecap="butt"/><path d="M232.62128,332.07493l0.06562,0.09498l-1.8044,-2.612l0.10448,-0.07218l2.00081,0.25593l0.0095,-0.00656l0.46871,-1.9619l0.10448,-0.07218l1.8044,2.612l-0.06562,-0.09498" fill="none" stroke-linecap="round"/></g></g></g></g></svg>